<svg xmlns="http://www.w3.org/2000/svg" style="display: none;">
	<symbol id="icon-logo" viewBox="0 0 109 84" fill="none">
		<g clip-path="url(#clip0_0_634)">
			<path fill-rule="evenodd" clip-rule="evenodd" d="M44.2538 27.8507C44.2079 26.4161 44.0221 25.3536 43.7461 24.6105C43.448 23.808 42.9851 23.2566 42.3561 22.8792C41.6638 22.4638 40.6574 22.1449 39.2529 22.0016C37.7802 21.8513 35.9325 21.7735 33.6983 21.7735H21.5751C19.5898 21.7735 17.9403 21.8357 16.6172 21.956L16.6094 21.9567L16.6016 21.9573C15.3275 22.0598 14.3577 22.2741 13.649 22.5601C12.974 22.8325 12.5286 23.1897 12.233 23.5997C11.91 24.0477 11.6207 24.7211 11.4281 25.6978C11.2307 26.699 11.1094 27.9806 11.079 29.5623L11.079 29.5626C11.0478 31.1695 11.0321 33.1011 11.0321 35.3591C11.0321 37.6136 11.0477 39.5507 11.0789 41.1719C11.1247 42.7366 11.2532 44.0136 11.4517 45.0204C11.6444 45.9976 11.9268 46.6754 12.2398 47.1278C12.5354 47.5339 12.9791 47.8878 13.649 48.1581C14.363 48.4462 15.3361 48.6673 16.6093 48.785C17.9384 48.8904 19.5909 48.9447 21.5751 48.9447H33.7219C35.4586 48.9447 36.9369 48.8981 38.1625 48.8073C39.37 48.7178 40.3497 48.5569 41.121 48.3404C41.8817 48.1269 42.4056 47.8575 42.7559 47.5773C43.1148 47.2901 43.3937 46.9326 43.5972 46.4828L43.6004 46.4756L43.6038 46.4684C43.8361 45.969 44.0143 45.3295 44.1101 44.5232C44.2115 43.6531 44.2649 42.6136 44.2649 41.3971V40.6424H26.1036V33.8496H51.8125V41.3971C51.8125 42.9677 51.7144 44.414 51.5119 45.7306L51.5116 45.7321L51.5114 45.7335C51.3018 47.0784 50.9211 48.3176 50.3535 49.4357C49.7924 50.5564 49.0324 51.5313 48.0813 52.3519C47.1156 53.185 45.9352 53.8412 44.5787 54.3456L44.5707 54.3486L44.5626 54.3515C43.2042 54.8391 41.6279 55.1816 39.8527 55.3956C38.0751 55.6257 36.0288 55.7375 33.7219 55.7375H21.5751C18.7544 55.7375 16.3244 55.5619 14.3047 55.1951C12.3118 54.8459 10.5852 54.301 9.17122 53.5215L9.16475 53.5179L9.15833 53.5143C7.74976 52.7197 6.607 51.6964 5.7813 50.4291L5.77689 50.4223L5.77255 50.4155C5.00441 49.2084 4.45743 47.8221 4.11095 46.2802L4.10917 46.2723L4.10748 46.2644C3.78562 44.7567 3.60497 43.0821 3.55587 41.2489C3.50827 39.4718 3.48457 37.5083 3.48457 35.3591C3.48457 33.2099 3.50827 31.2464 3.55587 29.4693C3.60497 27.6361 3.78562 25.9615 4.10748 24.4538L4.10917 24.4459L4.11095 24.438C4.45743 22.8961 5.00441 21.5098 5.77255 20.3027L5.77689 20.2959L5.7813 20.2891C6.60813 19.02 7.75314 18.0032 9.16475 17.2238C10.5815 16.4259 12.3108 15.8725 14.3049 15.5231C16.3246 15.1563 18.7545 14.9807 21.5751 14.9807H33.6983C36.0052 14.9807 38.0516 15.0925 39.8293 15.3226C41.6008 15.5362 43.1743 15.8777 44.5309 16.3638C45.8803 16.8317 47.0584 17.4499 48.0256 18.245C48.9916 19.0264 49.7672 19.9587 50.3367 21.0377C50.911 22.0964 51.2966 23.2707 51.5089 24.5444C51.6796 25.5685 51.7766 26.6718 51.8042 27.8507H50.2943C50.2876 27.5809 50.2771 27.3163 50.2628 27.0568C50.2185 26.2531 50.1376 25.4984 50.0199 24.7925C49.8312 23.6604 49.4932 22.6462 49.0057 21.7499C48.534 20.8536 47.8893 20.0753 47.0716 19.4149C46.2697 18.7545 45.2555 18.212 44.029 17.7875C42.8026 17.3472 41.3402 17.0248 39.642 16.8204C37.9438 16.6003 35.9626 16.4902 33.6983 16.4902H21.5751C18.8077 16.4902 16.4726 16.6632 14.57 17.0091C13.1953 17.2497 11.9959 17.5862 10.9717 18.0188C11.9958 17.5863 13.1951 17.2498 14.5697 17.0093C16.4723 16.6633 18.8073 16.4904 21.5748 16.4904H33.698C35.9623 16.4904 37.9435 16.6004 39.6417 16.8206C41.3399 17.025 42.8022 17.3473 44.0287 17.7876C45.2552 18.2121 46.2694 18.7546 47.0713 19.415C47.889 20.0754 48.5337 20.8538 49.0054 21.7501C49.4928 22.6463 49.8309 23.6605 50.0196 24.7927C50.1752 25.7264 50.2667 26.7458 50.2939 27.8507H45.7637C45.7637 27.8507 45.7637 27.8507 45.7637 27.8507H44.2538ZM27.6131 35.3592V35.3591H50.3029V41.3971C50.3029 42.9066 50.2086 44.2746 50.0199 45.5011C49.8312 46.7119 49.4932 47.7968 49.0057 48.756C48.534 49.6994 47.8972 50.5171 47.0952 51.2089C46.5909 51.6441 46.0026 52.0326 45.3303 52.3744C46.0024 52.0326 46.5906 51.6441 47.0949 51.2091C47.8968 50.5172 48.5337 49.6996 49.0054 48.7561C49.4928 47.797 49.8309 46.712 50.0196 45.5012C50.2083 44.2748 50.3026 42.9068 50.3026 41.3973V35.3592H27.6131Z" fill="#52AC62" />
			<path fill-rule="evenodd" clip-rule="evenodd" d="M94.5235 27.8507C94.4776 26.4161 94.2918 25.3536 94.0158 24.6105C93.7177 23.808 93.2548 23.2566 92.6258 22.8792C91.9335 22.4638 90.9271 22.1449 89.5226 22.0016L89.5211 22.0014C88.0652 21.8513 86.226 21.7735 83.9916 21.7735H73.4015C71.4161 21.7735 69.7667 21.8357 68.4435 21.956L68.4357 21.9567L68.4279 21.9573C67.1539 22.0598 66.1841 22.2741 65.4753 22.5601C64.8003 22.8325 64.355 23.1897 64.0594 23.5997C63.7364 24.0477 63.4471 24.7211 63.2545 25.6978C63.1339 26.3093 63.0418 27.0255 62.9813 27.8507H61.4681C61.4681 27.8507 61.468 27.8507 61.468 27.8507H56.9771C57.0641 26.7411 57.2085 25.7139 57.4101 24.7691C57.7246 23.3696 58.2121 22.151 58.8725 21.1132C59.5486 20.0754 60.4999 19.2185 61.7264 18.5424C62.9529 17.8505 64.5096 17.3395 66.3964 17.0093C68.2991 16.6633 70.6341 16.4904 73.4015 16.4904H83.9917C86.2559 16.4904 88.2372 16.6004 89.9354 16.8206C91.6336 17.025 93.0959 17.3473 94.3224 17.7876C95.5488 18.2121 96.563 18.7546 97.365 19.415C98.0666 19.9929 98.6419 20.661 99.0908 21.4193C98.6419 20.6609 98.0666 19.9928 97.3649 19.4149C96.563 18.7545 95.5488 18.212 94.3223 17.7875C93.0958 17.3472 91.6335 17.0248 89.9353 16.8204C88.2371 16.6003 86.2559 16.4902 83.9916 16.4902H73.4015C70.634 16.4902 68.299 16.6632 66.3964 17.0091C64.5095 17.3393 62.9528 17.8504 61.7264 18.5422C60.4999 19.2183 59.5486 20.0753 58.8724 21.1131C58.212 22.1509 57.7246 23.3695 57.4101 24.7689C57.2084 25.7138 57.064 26.741 56.977 27.8507H55.4631C55.5535 26.639 55.7093 25.5058 55.9339 24.4538L55.9355 24.4459L55.9373 24.438C56.2838 22.8961 56.8308 21.5098 57.5989 20.3027L57.6033 20.2959L57.6077 20.2891C58.4345 19.02 59.5795 18.0032 60.9911 17.2238C62.4079 16.4259 64.1371 15.8725 66.1313 15.5231C68.151 15.1563 70.5809 14.9807 73.4015 14.9807H83.9916C86.2985 14.9807 88.3449 15.0925 90.1225 15.3226C91.8941 15.5362 93.4676 15.8777 94.8242 16.3638C96.1762 16.8327 97.3563 17.4523 98.3245 18.2497C99.2746 19.032 100.039 19.9632 100.606 21.0378C101.181 22.0964 101.566 23.2707 101.779 24.5444C101.949 25.5685 102.046 26.6718 102.074 27.8507H100.564C100.564 27.8507 100.564 27.8507 100.564 27.8507H96.0338C96.0139 27.1837 95.9655 26.5716 95.8885 26.0143C95.9655 26.5715 96.0139 27.1836 96.0338 27.8507H94.5235ZM95.557 24.458C95.5174 24.3291 95.4754 24.2047 95.4309 24.0851C95.4294 24.081 95.4279 24.0768 95.4263 24.0727C95.3251 23.8021 95.2077 23.5477 95.0741 23.3095M99.4512 22.0915C99.3949 21.9758 99.3363 21.862 99.2754 21.7499C99.2754 21.75 99.2754 21.75 99.2755 21.7501C99.3364 21.862 99.3949 21.9759 99.4512 22.0915ZM61.3512 33.9345H62.8607C62.8592 34.394 62.8585 34.8688 62.8585 35.3591C62.8585 37.6136 62.8741 39.5507 62.9052 41.1719C62.9511 42.7366 63.0796 44.0136 63.2781 45.0204C63.4708 45.9976 63.7532 46.6754 64.0661 47.1278C64.3618 47.5339 64.8055 47.8878 65.4753 48.1581C66.1894 48.4462 67.1625 48.6673 68.4357 48.785C69.7647 48.8904 71.4172 48.9447 73.4015 48.9447H83.9916C85.7283 48.9447 87.2066 48.8981 88.4322 48.8073C89.6397 48.7178 90.6194 48.5569 91.3907 48.3404C92.1514 48.1269 92.6753 47.8575 93.0255 47.5773C93.3845 47.2901 93.6634 46.9326 93.8669 46.4828L93.8701 46.4756L93.8735 46.4684C94.1059 45.9687 94.2841 45.3289 94.3799 44.522C94.4813 43.6522 94.5346 42.613 94.5346 41.3971V39.8876H102.082V41.3971C102.082 42.9677 101.984 44.414 101.782 45.7306L101.781 45.7321L101.781 45.7335C101.572 47.0784 101.191 48.3176 100.623 49.4357C100.062 50.5564 99.3021 51.5313 98.351 52.3519C97.3853 53.185 96.2049 53.8412 94.8484 54.3456L94.8404 54.3486L94.8323 54.3515C93.4738 54.8391 91.8975 55.1816 90.1224 55.3956C88.3448 55.6257 86.2984 55.7375 83.9916 55.7375H73.4015C70.5808 55.7375 68.1508 55.5619 66.131 55.1951C64.1382 54.8459 62.4116 54.301 60.9976 53.5215L60.9911 53.5179L60.9847 53.5143C59.5761 52.7197 58.4334 51.6964 57.6077 50.4291L57.6033 50.4223L57.5989 50.4155C56.8308 49.2084 56.2838 47.8221 55.9373 46.2802L55.9355 46.2723L55.9339 46.2644C55.612 44.7567 55.4313 43.0821 55.3822 41.2489C55.3346 39.4718 55.3109 37.5083 55.3109 35.3591C55.3109 34.8748 55.3121 34.3999 55.3146 33.9345H56.8241C56.8217 34.3997 56.8204 34.8745 56.8204 35.3591C56.8204 37.4976 56.844 39.4473 56.8912 41.2084C56.9384 42.9695 57.1113 44.5498 57.4101 45.9492C57.4298 46.0367 57.4501 46.1235 57.4711 46.2095C57.4501 46.1235 57.4298 46.0368 57.4101 45.9494C57.1114 44.5499 56.9384 42.9697 56.8913 41.2086C56.8441 39.4475 56.8205 37.4977 56.8205 35.3592C56.8205 34.8747 56.8217 34.3998 56.8241 33.9346H61.3512C61.3512 33.9345 61.3512 33.9345 61.3512 33.9345ZM62.5047 47.4529C62.6069 47.6495 62.717 47.8323 62.8349 48.0014C63.3224 48.6775 64.0143 49.1964 64.9105 49.5581C65.8068 49.9197 66.9389 50.1634 68.3069 50.2892C69.6906 50.3993 71.3888 50.4543 73.4015 50.4543H83.9917C85.7528 50.4543 87.2701 50.4072 88.5438 50.3128C89.8174 50.2185 90.9024 50.0455 91.7987 49.7939C92.6949 49.5423 93.4182 49.1964 93.9686 48.7561C94.5189 48.3158 94.9435 47.7655 95.2422 47.1051C95.5567 46.429 95.769 45.627 95.8791 44.6993C95.9891 43.7559 96.0442 42.6552 96.0442 41.3973H100.573C100.573 41.3972 100.573 41.3972 100.573 41.3971H96.0441C96.0441 42.6551 95.9891 43.7557 95.879 44.6992C95.7689 45.6269 95.5567 46.4288 95.2422 47.105C94.9434 47.7654 94.5189 48.3157 93.9685 48.756C93.4182 49.1963 92.6949 49.5422 91.7986 49.7938C90.9023 50.0454 89.8174 50.2183 88.5437 50.3127C87.2701 50.407 85.7527 50.4542 83.9916 50.4542H73.4015C71.3888 50.4542 69.6906 50.3992 68.3069 50.2891C66.9389 50.1633 65.8067 49.9196 64.9105 49.5579C64.0142 49.1963 63.3223 48.6774 62.8349 48.0012C62.717 47.8322 62.6069 47.6494 62.5047 47.4529Z" fill="#264F2D" />
			<path d="M80.8326 55.6218C80.8326 55.6218 80.8469 55.5647 80.8814 55.4566C80.9157 55.3484 80.9672 55.1892 81.0368 54.9856C81.1063 54.7821 81.1937 54.5342 81.2996 54.2488C81.3528 54.1062 81.4096 53.9542 81.4729 53.7938C81.5398 53.6343 81.6105 53.4658 81.6851 53.2882C81.8363 52.9356 82.007 52.5528 82.1982 52.1472C82.3983 51.7421 82.6189 51.3142 82.8603 50.8713C82.9212 50.7611 82.9829 50.6495 83.0454 50.5364C83.1113 50.4247 83.1782 50.3116 83.2458 50.1971C83.3823 49.9692 83.524 49.7389 83.6709 49.5062C83.8195 49.2739 83.9668 49.0391 84.1314 48.8043C84.2946 48.5695 84.4631 48.3341 84.637 48.0979C86.1323 46.0446 87.9753 44.2925 90.0827 42.9211C90.3615 42.7438 90.6451 42.5734 90.9334 42.4099C91.2205 42.2463 91.5148 42.0907 91.8194 41.9442C92.4273 41.6488 93.0516 41.3883 93.6896 41.164C94.3444 40.9392 95.0128 40.7541 95.6914 40.6095C96.0336 40.5368 96.38 40.4743 96.7305 40.4222C97.0846 40.371 97.4427 40.3305 97.8047 40.3006C97.181 40.3751 96.568 40.5107 95.9739 40.7056C95.39 40.8897 94.8195 41.1123 94.2657 41.372C93.551 41.712 92.8637 42.107 92.2094 42.5537C91.8479 42.8035 91.4756 43.0813 91.0948 43.3906C90.7128 43.6999 90.341 44.0441 89.9537 44.4216C89.564 44.7988 89.1879 45.2143 88.8065 45.6678C88.6173 45.8948 88.4205 46.1304 88.2363 46.378C88.0511 46.6253 87.8659 46.883 87.6807 47.1508C87.304 47.6858 86.9581 48.2662 86.6054 48.8904C86.4265 49.2022 86.2665 49.5269 86.1002 49.8625C85.9376 50.1984 85.7677 50.5452 85.6161 50.9051C84.9416 52.4809 84.4158 54.1252 84.0458 55.8162C84.3361 55.8061 84.626 55.7902 84.9151 55.7653C86.8013 55.5907 88.6446 55.1479 90.393 54.4494C91.2847 54.0969 92.154 53.6912 92.9967 53.2341C93.4218 53.0043 93.8303 52.7609 94.2473 52.5057C94.6616 52.2504 95.0673 51.9827 95.4644 51.7026C98.2054 49.7631 100.007 46.876 101.695 44.0669C102.419 42.8493 103.388 41.813 104.541 41.0251C105.632 40.2918 106.832 39.7385 108.098 39.3843C105.614 38.1141 103.009 37.1368 100.333 36.4716C99.2217 36.2136 98.0947 36.0556 96.9648 35.9995C95.9416 35.9503 94.9205 36.0088 93.9174 36.174C93.4416 36.252 92.9713 36.3568 92.5086 36.4881C92.0592 36.6169 91.6174 36.7694 91.1848 36.9451C90.3384 37.2901 89.5315 37.7241 88.7764 38.2405C87.3057 39.2624 86.0236 40.5413 84.9845 42.0231C83.1407 44.7051 81.8842 47.7834 81.2975 51.0558C81.2349 51.3904 81.1786 51.7122 81.1285 52.021C81.0815 52.3293 81.0463 52.6234 81.0124 52.9007C80.9793 53.1779 80.9512 53.4385 80.9271 53.6801C80.9029 53.9217 80.8918 54.1446 80.8786 54.3463C80.8546 54.7497 80.8424 55.0688 80.8365 55.2868C80.8293 55.5049 80.8326 55.6218 80.8326 55.6218Z" fill="#B2EB0D" />
			<mask id="path-4-outside-1_0_634" maskUnits="userSpaceOnUse" x="2.9812" y="63.5781" width="102" height="9" fill="black">
				<rect fill="white" x="2.9812" y="63.5781" width="102" height="9" />
				<path d="M11.7675 66.5817C11.7675 66.2032 11.7265 65.9035 11.6445 65.6827C11.5625 65.4619 11.4269 65.2947 11.2376 65.1812C11.0484 65.0676 10.7992 64.9951 10.49 64.9635C10.1809 64.932 9.79924 64.9162 9.34502 64.9162H6.91305C6.5093 64.9162 6.16863 64.9288 5.89105 64.9541C5.61663 64.9762 5.38952 65.0235 5.20972 65.096C5.02993 65.1686 4.89114 65.2727 4.79335 65.4083C4.69557 65.5439 4.6246 65.7237 4.58044 65.9477C4.53628 66.1716 4.51104 66.4476 4.50473 66.7757C4.49842 67.1006 4.49527 67.4901 4.49527 67.9444C4.49527 68.3986 4.49842 68.7897 4.50473 69.1178C4.5142 69.4427 4.54101 69.7171 4.58517 69.941C4.62933 70.165 4.69872 70.3448 4.79335 70.4804C4.89114 70.6161 5.02993 70.7202 5.20972 70.7927C5.38952 70.8653 5.61663 70.9141 5.89105 70.9394C6.16863 70.9615 6.5093 70.9725 6.91305 70.9725H9.34975C9.70304 70.9725 10.0074 70.963 10.2629 70.9441C10.5184 70.9252 10.7361 70.8905 10.9159 70.84C11.0957 70.7895 11.2408 70.7202 11.3512 70.6318C11.4616 70.5435 11.5467 70.4331 11.6067 70.3006C11.6697 70.165 11.7123 70.0041 11.7344 69.818C11.7565 69.6288 11.7675 69.408 11.7675 69.1556V68.7014H8.1243V67.9444H12.676V69.1556C12.676 69.4584 12.657 69.7329 12.6192 69.9789C12.5813 70.2218 12.5135 70.4394 12.4157 70.6318C12.3211 70.8211 12.1934 70.9851 12.0325 71.1239C11.8716 71.2627 11.6682 71.3778 11.4221 71.4693C11.1761 71.5576 10.8827 71.6223 10.5421 71.6633C10.2014 71.7075 9.80397 71.7295 9.34975 71.7295H6.91305C6.35789 71.7295 5.88948 71.6948 5.5078 71.6254C5.12929 71.5592 4.81701 71.4583 4.57097 71.3226C4.32494 71.1838 4.1341 71.0103 3.99847 70.8022C3.86599 70.594 3.7682 70.3495 3.70512 70.0688C3.64518 69.7881 3.61049 69.471 3.60102 69.1178C3.59156 68.7645 3.58683 68.3733 3.58683 67.9444C3.58683 67.5154 3.59156 67.1242 3.60102 66.771C3.61049 66.4177 3.64518 66.1007 3.70512 65.8199C3.7682 65.5392 3.86599 65.2947 3.99847 65.0866C4.1341 64.8784 4.32494 64.7065 4.57097 64.5708C4.81701 64.432 5.12929 64.3295 5.5078 64.2633C5.88948 64.1939 6.35789 64.1592 6.91305 64.1592H9.34502C9.79924 64.1592 10.1967 64.1813 10.5374 64.2254C10.878 64.2664 11.1714 64.3311 11.4174 64.4194C11.6634 64.5046 11.8669 64.6134 12.0278 64.7459C12.1918 64.8784 12.3211 65.0345 12.4157 65.2143C12.5135 65.3941 12.5813 65.5976 12.6192 65.8247C12.657 66.0518 12.676 66.3041 12.676 66.5817H11.7675ZM22.5222 71.5781H21.6137V70.2155C21.6137 69.9947 21.609 69.8054 21.5995 69.6477C21.5932 69.4868 21.5664 69.3496 21.5191 69.236C21.4749 69.1225 21.404 69.031 21.3062 68.9616C21.2084 68.8922 21.0696 68.8386 20.8898 68.8008C20.71 68.7629 20.4813 68.7377 20.2037 68.7251C19.9293 68.7093 19.5902 68.7014 19.1865 68.7014H15.1032V71.5781H14.1948V64.3106H19.3379C19.893 64.3106 20.3599 64.3311 20.7384 64.3721C21.1201 64.41 21.4339 64.4683 21.68 64.5472C21.9291 64.626 22.12 64.7238 22.2525 64.8405C22.3881 64.9572 22.4859 65.0944 22.5458 65.2522C22.6089 65.4099 22.6452 65.5865 22.6546 65.7821C22.6673 65.9776 22.6736 66.1937 22.6736 66.4303C22.6736 66.7331 22.6515 66.9996 22.6073 67.2299C22.5663 67.457 22.4953 67.651 22.3944 67.8119C22.2935 67.9727 22.1594 68.1021 21.9922 68.1999C21.8251 68.2945 21.6153 68.3607 21.3629 68.3986C21.6153 68.4364 21.8172 68.5027 21.9686 68.5973C22.12 68.6919 22.2367 68.8149 22.3187 68.9664C22.4007 69.1178 22.4543 69.2976 22.4796 69.5057C22.508 69.7139 22.5222 69.9505 22.5222 70.2155V71.5781ZM15.1032 67.9444H19.3379C19.7416 67.9444 20.0807 67.9381 20.3551 67.9254C20.6327 67.9097 20.8614 67.8829 21.0412 67.845C21.221 67.8071 21.3598 67.7535 21.4576 67.6841C21.5554 67.6147 21.6263 67.5233 21.6705 67.4097C21.7178 67.2961 21.7446 67.1605 21.7509 67.0028C21.7604 66.8419 21.7651 66.6511 21.7651 66.4303C21.7651 66.2253 21.7604 66.0486 21.7509 65.9004C21.7446 65.7521 21.7178 65.6275 21.6705 65.5266C21.6263 65.4256 21.5554 65.3452 21.4576 65.2853C21.3598 65.2253 21.221 65.1796 21.0412 65.1481C20.8614 65.1134 20.6327 65.0913 20.3551 65.0818C20.0807 65.0724 19.7416 65.0676 19.3379 65.0676H15.1032V67.9444ZM24.1876 71.5781V64.3106H31.4552V65.0676H25.0961V67.4901H31.1523V68.2472H25.0961V70.8211H31.4552V71.5781H24.1876ZM32.6664 71.5781V64.3106H39.9339V65.0676H33.5749V67.4901H39.6311V68.2472H33.5749V70.8211H39.9339V71.5781H32.6664ZM42.0536 71.5781H41.1452V64.3106H42.7397L49.4016 70.6697V64.3106H50.3101V71.5781H49.0988L42.0536 65.0676V71.5781ZM61.817 66.5817C61.817 66.2032 61.776 65.9035 61.694 65.6827C61.6119 65.4619 61.4763 65.2947 61.2871 65.1812C61.0978 65.0676 60.8486 64.9951 60.5395 64.9635C60.2335 64.932 59.8534 64.9162 59.3992 64.9162H57.2748C56.871 64.9162 56.5304 64.9288 56.2528 64.9541C55.9783 64.9762 55.7512 65.0235 55.5714 65.096C55.3916 65.1686 55.2529 65.2727 55.1551 65.4083C55.0573 65.5439 54.9863 65.7237 54.9422 65.9477C54.898 66.1716 54.8728 66.4476 54.8665 66.7757C54.8601 67.1006 54.857 67.4901 54.857 67.9444C54.857 68.3986 54.8601 68.7897 54.8665 69.1178C54.8759 69.4427 54.9027 69.7171 54.9469 69.941C54.991 70.165 55.0604 70.3448 55.1551 70.4804C55.2529 70.6161 55.3916 70.7202 55.5714 70.7927C55.7512 70.8653 55.9783 70.9141 56.2528 70.9394C56.5304 70.9615 56.871 70.9725 57.2748 70.9725H59.3992C59.7525 70.9725 60.0569 70.963 60.3124 70.9441C60.5679 70.9252 60.7855 70.8905 60.9653 70.84C61.1451 70.7895 61.2902 70.7202 61.4006 70.6318C61.511 70.5435 61.5962 70.4331 61.6561 70.3006C61.7192 70.165 61.7618 70.0041 61.7839 69.818C61.8059 69.6288 61.817 69.408 61.817 69.1556H62.7254C62.7254 69.4584 62.7065 69.7329 62.6686 69.9789C62.6308 70.2218 62.563 70.4394 62.4652 70.6318C62.3706 70.8211 62.2428 70.9851 62.0819 71.1239C61.9211 71.2627 61.7176 71.3778 61.4716 71.4693C61.2255 71.5576 60.9322 71.6223 60.5915 71.6633C60.2509 71.7075 59.8534 71.7295 59.3992 71.7295H57.2748C56.7196 71.7295 56.2512 71.6948 55.8695 71.6254C55.491 71.5592 55.1787 71.4583 54.9327 71.3226C54.6867 71.1838 54.4958 71.0103 54.3602 70.8022C54.2277 70.594 54.1299 70.3495 54.0668 70.0688C54.0069 69.7881 53.9722 69.471 53.9627 69.1178C53.9533 68.7645 53.9485 68.3733 53.9485 67.9444C53.9485 67.5154 53.9533 67.1242 53.9627 66.771C53.9722 66.4177 54.0069 66.1007 54.0668 65.8199C54.1299 65.5392 54.2277 65.2947 54.3602 65.0866C54.4958 64.8784 54.6867 64.7065 54.9327 64.5708C55.1787 64.432 55.491 64.3295 55.8695 64.2633C56.2512 64.1939 56.7196 64.1592 57.2748 64.1592H59.3992C59.8534 64.1592 60.2509 64.1813 60.5915 64.2254C60.9322 64.2664 61.2255 64.3311 61.4716 64.4194C61.7176 64.5046 61.9211 64.6134 62.0819 64.7459C62.2428 64.8784 62.3706 65.0345 62.4652 65.2143C62.563 65.3941 62.6308 65.5976 62.6686 65.8247C62.7065 66.0518 62.7254 66.3041 62.7254 66.5817H61.817ZM71.3603 69.9126H65.6069L64.6984 71.5781H63.6386L67.878 64.3106H69.0892L73.3286 71.5781H72.2688L71.3603 69.9126ZM70.9061 69.1556L68.4836 64.9162L66.0611 69.1556H70.9061ZM82.8673 71.5781H81.9588V70.2155C81.9588 69.9947 81.9541 69.8054 81.9446 69.6477C81.9383 69.4868 81.9115 69.3496 81.8642 69.236C81.82 69.1225 81.7491 69.031 81.6513 68.9616C81.5535 68.8922 81.4147 68.8386 81.2349 68.8008C81.0551 68.7629 80.8264 68.7377 80.5488 68.7251C80.2744 68.7093 79.9353 68.7014 79.5316 68.7014H75.4483V71.5781H74.5399V64.3106H79.683C80.2381 64.3106 80.705 64.3311 81.0835 64.3721C81.4652 64.41 81.779 64.4683 82.0251 64.5472C82.2743 64.626 82.4651 64.7238 82.5976 64.8405C82.7332 64.9572 82.831 65.0944 82.8909 65.2522C82.954 65.4099 82.9903 65.5865 82.9997 65.7821C83.0124 65.9776 83.0187 66.1937 83.0187 66.4303C83.0187 66.7331 82.9966 66.9996 82.9524 67.2299C82.9114 67.457 82.8405 67.651 82.7395 67.8119C82.6386 67.9727 82.5045 68.1021 82.3373 68.1999C82.1702 68.2945 81.9604 68.3607 81.7081 68.3986C81.9604 68.4364 82.1623 68.5027 82.3137 68.5973C82.4651 68.6919 82.5818 68.8149 82.6638 68.9664C82.7458 69.1178 82.7995 69.2976 82.8247 69.5057C82.8531 69.7139 82.8673 69.9505 82.8673 70.2155V71.5781ZM75.4483 67.9444H79.683C80.0867 67.9444 80.4258 67.9381 80.7003 67.9254C80.9778 67.9097 81.2065 67.8829 81.3863 67.845C81.5661 67.8071 81.7049 67.7535 81.8027 67.6841C81.9005 67.6147 81.9714 67.5233 82.0156 67.4097C82.0629 67.2961 82.0897 67.1605 82.096 67.0028C82.1055 66.8419 82.1102 66.6511 82.1102 66.4303C82.1102 66.2253 82.1055 66.0486 82.096 65.9004C82.0897 65.7521 82.0629 65.6275 82.0156 65.5266C81.9714 65.4256 81.9005 65.3452 81.8027 65.2853C81.7049 65.2253 81.5661 65.1796 81.3863 65.1481C81.2065 65.1134 80.9778 65.0913 80.7003 65.0818C80.4258 65.0724 80.0867 65.0676 79.683 65.0676H75.4483V67.9444ZM92.4106 66.5817C92.4106 66.2032 92.3696 65.9035 92.2876 65.6827C92.2056 65.4619 92.07 65.2947 91.8807 65.1812C91.6914 65.0676 91.4423 64.9951 91.1331 64.9635C90.824 64.932 90.4423 64.9162 89.9881 64.9162H87.5561C87.1524 64.9162 86.8117 64.9288 86.5341 64.9541C86.2597 64.9762 86.0326 65.0235 85.8528 65.096C85.673 65.1686 85.5342 65.2727 85.4364 65.4083C85.3387 65.5439 85.2677 65.7237 85.2235 65.9477C85.1794 66.1716 85.1541 66.4476 85.1478 66.7757C85.1415 67.1006 85.1384 67.4901 85.1384 67.9444C85.1384 68.3986 85.1415 68.7897 85.1478 69.1178C85.1573 69.4427 85.1841 69.7171 85.2283 69.941C85.2724 70.165 85.3418 70.3448 85.4364 70.4804C85.5342 70.6161 85.673 70.7202 85.8528 70.7927C86.0326 70.8653 86.2597 70.9141 86.5341 70.9394C86.8117 70.9615 87.1524 70.9725 87.5561 70.9725H89.9929C90.3461 70.9725 90.6505 70.963 90.906 70.9441C91.1615 70.9252 91.3792 70.8905 91.559 70.84C91.7388 70.7895 91.8839 70.7202 91.9943 70.6318C92.1047 70.5435 92.1898 70.4331 92.2498 70.3006C92.3128 70.165 92.3554 70.0041 92.3775 69.818C92.3996 69.6288 92.4106 69.408 92.4106 69.1556V68.7014H88.7674V67.9444H93.3191V69.1556C93.3191 69.4584 93.3001 69.7329 93.2623 69.9789C93.2244 70.2218 93.1566 70.4394 93.0588 70.6318C92.9642 70.8211 92.8365 70.9851 92.6756 71.1239C92.5147 71.2627 92.3113 71.3778 92.0652 71.4693C91.8192 71.5576 91.5258 71.6223 91.1852 71.6633C90.8445 71.7075 90.4471 71.7295 89.9929 71.7295H87.5561C87.001 71.7295 86.5326 71.6948 86.1509 71.6254C85.7724 71.5592 85.4601 71.4583 85.2141 71.3226C84.968 71.1838 84.7772 71.0103 84.6416 70.8022C84.5091 70.594 84.4113 70.3495 84.3482 70.0688C84.2883 69.7881 84.2536 69.471 84.2441 69.1178C84.2347 68.7645 84.2299 68.3733 84.2299 67.9444C84.2299 67.5154 84.2347 67.1242 84.2441 66.771C84.2536 66.4177 84.2883 66.1007 84.3482 65.8199C84.4113 65.5392 84.5091 65.2947 84.6416 65.0866C84.7772 64.8784 84.968 64.7065 85.2141 64.5708C85.4601 64.432 85.7724 64.3295 86.1509 64.2633C86.5326 64.1939 87.001 64.1592 87.5561 64.1592H89.9881C90.4423 64.1592 90.8398 64.1813 91.1804 64.2254C91.5211 64.2664 91.8145 64.3311 92.0605 64.4194C92.3065 64.5046 92.51 64.6134 92.6709 64.7459C92.8349 64.8784 92.9642 65.0345 93.0588 65.2143C93.1566 65.3941 93.2244 65.5976 93.2623 65.8247C93.3001 66.0518 93.3191 66.3041 93.3191 66.5817H92.4106ZM100.596 64.1592C101.151 64.1592 101.618 64.1939 101.997 64.2633C102.378 64.3295 102.692 64.432 102.938 64.5708C103.184 64.7065 103.373 64.8784 103.506 65.0866C103.638 65.2947 103.735 65.5392 103.795 65.8199C103.858 66.1007 103.894 66.4177 103.903 66.771C103.916 67.1242 103.922 67.5154 103.922 67.9444C103.922 68.3733 103.916 68.7645 103.903 69.1178C103.894 69.471 103.858 69.7881 103.795 70.0688C103.735 70.3495 103.638 70.594 103.506 70.8022C103.373 71.0103 103.184 71.1838 102.938 71.3226C102.692 71.4583 102.378 71.5592 101.997 71.6254C101.618 71.6948 101.151 71.7295 100.596 71.7295H97.8613C97.3061 71.7295 96.8377 71.6948 96.456 71.6254C96.0775 71.5592 95.7652 71.4583 95.5192 71.3226C95.2732 71.1838 95.0823 71.0103 94.9467 70.8022C94.8142 70.594 94.7164 70.3495 94.6533 70.0688C94.5934 69.7881 94.5587 69.471 94.5493 69.1178C94.5398 68.7645 94.5351 68.3733 94.5351 67.9444C94.5351 67.5154 94.5398 67.1242 94.5493 66.771C94.5587 66.4177 94.5934 66.1007 94.6533 65.8199C94.7164 65.5392 94.8142 65.2947 94.9467 65.0866C95.0823 64.8784 95.2732 64.7065 95.5192 64.5708C95.7652 64.432 96.0775 64.3295 96.456 64.2633C96.8377 64.1939 97.3061 64.1592 97.8613 64.1592H100.596ZM100.596 70.9725C100.997 70.9725 101.334 70.9615 101.609 70.9394C101.886 70.9141 102.115 70.8653 102.295 70.7927C102.474 70.7202 102.613 70.6161 102.711 70.4804C102.809 70.3448 102.88 70.165 102.924 69.941C102.968 69.7171 102.993 69.4427 103 69.1178C103.009 68.7897 103.014 68.3986 103.014 67.9444C103.014 67.4901 103.009 67.1006 103 66.7757C102.993 66.4476 102.968 66.1716 102.924 65.9477C102.88 65.7237 102.809 65.5439 102.711 65.4083C102.613 65.2727 102.474 65.1686 102.295 65.096C102.118 65.0235 101.891 64.9762 101.613 64.9541C101.339 64.9288 101 64.9162 100.596 64.9162H97.8613C97.4575 64.9162 97.1169 64.9288 96.8393 64.9541C96.5649 64.9762 96.3378 65.0235 96.158 65.096C95.9782 65.1686 95.8394 65.2727 95.7416 65.4083C95.6438 65.5439 95.5728 65.7237 95.5287 65.9477C95.4845 66.1716 95.4593 66.4476 95.453 66.7757C95.4467 67.1006 95.4435 67.4901 95.4435 67.9444C95.4435 68.3986 95.4467 68.7897 95.453 69.1178C95.4624 69.4427 95.4892 69.7171 95.5334 69.941C95.5776 70.165 95.647 70.3448 95.7416 70.4804C95.8394 70.6161 95.9782 70.7202 96.158 70.7927C96.3378 70.8653 96.5649 70.9141 96.8393 70.9394C97.1169 70.9615 97.4575 70.9725 97.8613 70.9725H100.596Z" />
			</mask>
			<path d="M11.7675 66.5817C11.7675 66.2032 11.7265 65.9035 11.6445 65.6827C11.5625 65.4619 11.4269 65.2947 11.2376 65.1812C11.0484 65.0676 10.7992 64.9951 10.49 64.9635C10.1809 64.932 9.79924 64.9162 9.34502 64.9162H6.91305C6.5093 64.9162 6.16863 64.9288 5.89105 64.9541C5.61663 64.9762 5.38952 65.0235 5.20972 65.096C5.02993 65.1686 4.89114 65.2727 4.79335 65.4083C4.69557 65.5439 4.6246 65.7237 4.58044 65.9477C4.53628 66.1716 4.51104 66.4476 4.50473 66.7757C4.49842 67.1006 4.49527 67.4901 4.49527 67.9444C4.49527 68.3986 4.49842 68.7897 4.50473 69.1178C4.5142 69.4427 4.54101 69.7171 4.58517 69.941C4.62933 70.165 4.69872 70.3448 4.79335 70.4804C4.89114 70.6161 5.02993 70.7202 5.20972 70.7927C5.38952 70.8653 5.61663 70.9141 5.89105 70.9394C6.16863 70.9615 6.5093 70.9725 6.91305 70.9725H9.34975C9.70304 70.9725 10.0074 70.963 10.2629 70.9441C10.5184 70.9252 10.7361 70.8905 10.9159 70.84C11.0957 70.7895 11.2408 70.7202 11.3512 70.6318C11.4616 70.5435 11.5467 70.4331 11.6067 70.3006C11.6697 70.165 11.7123 70.0041 11.7344 69.818C11.7565 69.6288 11.7675 69.408 11.7675 69.1556V68.7014H8.1243V67.9444H12.676V69.1556C12.676 69.4584 12.657 69.7329 12.6192 69.9789C12.5813 70.2218 12.5135 70.4394 12.4157 70.6318C12.3211 70.8211 12.1934 70.9851 12.0325 71.1239C11.8716 71.2627 11.6682 71.3778 11.4221 71.4693C11.1761 71.5576 10.8827 71.6223 10.5421 71.6633C10.2014 71.7075 9.80397 71.7295 9.34975 71.7295H6.91305C6.35789 71.7295 5.88948 71.6948 5.5078 71.6254C5.12929 71.5592 4.81701 71.4583 4.57097 71.3226C4.32494 71.1838 4.1341 71.0103 3.99847 70.8022C3.86599 70.594 3.7682 70.3495 3.70512 70.0688C3.64518 69.7881 3.61049 69.471 3.60102 69.1178C3.59156 68.7645 3.58683 68.3733 3.58683 67.9444C3.58683 67.5154 3.59156 67.1242 3.60102 66.771C3.61049 66.4177 3.64518 66.1007 3.70512 65.8199C3.7682 65.5392 3.86599 65.2947 3.99847 65.0866C4.1341 64.8784 4.32494 64.7065 4.57097 64.5708C4.81701 64.432 5.12929 64.3295 5.5078 64.2633C5.88948 64.1939 6.35789 64.1592 6.91305 64.1592H9.34502C9.79924 64.1592 10.1967 64.1813 10.5374 64.2254C10.878 64.2664 11.1714 64.3311 11.4174 64.4194C11.6634 64.5046 11.8669 64.6134 12.0278 64.7459C12.1918 64.8784 12.3211 65.0345 12.4157 65.2143C12.5135 65.3941 12.5813 65.5976 12.6192 65.8247C12.657 66.0518 12.676 66.3041 12.676 66.5817H11.7675ZM22.5222 71.5781H21.6137V70.2155C21.6137 69.9947 21.609 69.8054 21.5995 69.6477C21.5932 69.4868 21.5664 69.3496 21.5191 69.236C21.4749 69.1225 21.404 69.031 21.3062 68.9616C21.2084 68.8922 21.0696 68.8386 20.8898 68.8008C20.71 68.7629 20.4813 68.7377 20.2037 68.7251C19.9293 68.7093 19.5902 68.7014 19.1865 68.7014H15.1032V71.5781H14.1948V64.3106H19.3379C19.893 64.3106 20.3599 64.3311 20.7384 64.3721C21.1201 64.41 21.4339 64.4683 21.68 64.5472C21.9291 64.626 22.12 64.7238 22.2525 64.8405C22.3881 64.9572 22.4859 65.0944 22.5458 65.2522C22.6089 65.4099 22.6452 65.5865 22.6546 65.7821C22.6673 65.9776 22.6736 66.1937 22.6736 66.4303C22.6736 66.7331 22.6515 66.9996 22.6073 67.2299C22.5663 67.457 22.4953 67.651 22.3944 67.8119C22.2935 67.9727 22.1594 68.1021 21.9922 68.1999C21.8251 68.2945 21.6153 68.3607 21.3629 68.3986C21.6153 68.4364 21.8172 68.5027 21.9686 68.5973C22.12 68.6919 22.2367 68.8149 22.3187 68.9664C22.4007 69.1178 22.4543 69.2976 22.4796 69.5057C22.508 69.7139 22.5222 69.9505 22.5222 70.2155V71.5781ZM15.1032 67.9444H19.3379C19.7416 67.9444 20.0807 67.9381 20.3551 67.9254C20.6327 67.9097 20.8614 67.8829 21.0412 67.845C21.221 67.8071 21.3598 67.7535 21.4576 67.6841C21.5554 67.6147 21.6263 67.5233 21.6705 67.4097C21.7178 67.2961 21.7446 67.1605 21.7509 67.0028C21.7604 66.8419 21.7651 66.6511 21.7651 66.4303C21.7651 66.2253 21.7604 66.0486 21.7509 65.9004C21.7446 65.7521 21.7178 65.6275 21.6705 65.5266C21.6263 65.4256 21.5554 65.3452 21.4576 65.2853C21.3598 65.2253 21.221 65.1796 21.0412 65.1481C20.8614 65.1134 20.6327 65.0913 20.3551 65.0818C20.0807 65.0724 19.7416 65.0676 19.3379 65.0676H15.1032V67.9444ZM24.1876 71.5781V64.3106H31.4552V65.0676H25.0961V67.4901H31.1523V68.2472H25.0961V70.8211H31.4552V71.5781H24.1876ZM32.6664 71.5781V64.3106H39.9339V65.0676H33.5749V67.4901H39.6311V68.2472H33.5749V70.8211H39.9339V71.5781H32.6664ZM42.0536 71.5781H41.1452V64.3106H42.7397L49.4016 70.6697V64.3106H50.3101V71.5781H49.0988L42.0536 65.0676V71.5781ZM61.817 66.5817C61.817 66.2032 61.776 65.9035 61.694 65.6827C61.6119 65.4619 61.4763 65.2947 61.2871 65.1812C61.0978 65.0676 60.8486 64.9951 60.5395 64.9635C60.2335 64.932 59.8534 64.9162 59.3992 64.9162H57.2748C56.871 64.9162 56.5304 64.9288 56.2528 64.9541C55.9783 64.9762 55.7512 65.0235 55.5714 65.096C55.3916 65.1686 55.2529 65.2727 55.1551 65.4083C55.0573 65.5439 54.9863 65.7237 54.9422 65.9477C54.898 66.1716 54.8728 66.4476 54.8665 66.7757C54.8601 67.1006 54.857 67.4901 54.857 67.9444C54.857 68.3986 54.8601 68.7897 54.8665 69.1178C54.8759 69.4427 54.9027 69.7171 54.9469 69.941C54.991 70.165 55.0604 70.3448 55.1551 70.4804C55.2529 70.6161 55.3916 70.7202 55.5714 70.7927C55.7512 70.8653 55.9783 70.9141 56.2528 70.9394C56.5304 70.9615 56.871 70.9725 57.2748 70.9725H59.3992C59.7525 70.9725 60.0569 70.963 60.3124 70.9441C60.5679 70.9252 60.7855 70.8905 60.9653 70.84C61.1451 70.7895 61.2902 70.7202 61.4006 70.6318C61.511 70.5435 61.5962 70.4331 61.6561 70.3006C61.7192 70.165 61.7618 70.0041 61.7839 69.818C61.8059 69.6288 61.817 69.408 61.817 69.1556H62.7254C62.7254 69.4584 62.7065 69.7329 62.6686 69.9789C62.6308 70.2218 62.563 70.4394 62.4652 70.6318C62.3706 70.8211 62.2428 70.9851 62.0819 71.1239C61.9211 71.2627 61.7176 71.3778 61.4716 71.4693C61.2255 71.5576 60.9322 71.6223 60.5915 71.6633C60.2509 71.7075 59.8534 71.7295 59.3992 71.7295H57.2748C56.7196 71.7295 56.2512 71.6948 55.8695 71.6254C55.491 71.5592 55.1787 71.4583 54.9327 71.3226C54.6867 71.1838 54.4958 71.0103 54.3602 70.8022C54.2277 70.594 54.1299 70.3495 54.0668 70.0688C54.0069 69.7881 53.9722 69.471 53.9627 69.1178C53.9533 68.7645 53.9485 68.3733 53.9485 67.9444C53.9485 67.5154 53.9533 67.1242 53.9627 66.771C53.9722 66.4177 54.0069 66.1007 54.0668 65.8199C54.1299 65.5392 54.2277 65.2947 54.3602 65.0866C54.4958 64.8784 54.6867 64.7065 54.9327 64.5708C55.1787 64.432 55.491 64.3295 55.8695 64.2633C56.2512 64.1939 56.7196 64.1592 57.2748 64.1592H59.3992C59.8534 64.1592 60.2509 64.1813 60.5915 64.2254C60.9322 64.2664 61.2255 64.3311 61.4716 64.4194C61.7176 64.5046 61.9211 64.6134 62.0819 64.7459C62.2428 64.8784 62.3706 65.0345 62.4652 65.2143C62.563 65.3941 62.6308 65.5976 62.6686 65.8247C62.7065 66.0518 62.7254 66.3041 62.7254 66.5817H61.817ZM71.3603 69.9126H65.6069L64.6984 71.5781H63.6386L67.878 64.3106H69.0892L73.3286 71.5781H72.2688L71.3603 69.9126ZM70.9061 69.1556L68.4836 64.9162L66.0611 69.1556H70.9061ZM82.8673 71.5781H81.9588V70.2155C81.9588 69.9947 81.9541 69.8054 81.9446 69.6477C81.9383 69.4868 81.9115 69.3496 81.8642 69.236C81.82 69.1225 81.7491 69.031 81.6513 68.9616C81.5535 68.8922 81.4147 68.8386 81.2349 68.8008C81.0551 68.7629 80.8264 68.7377 80.5488 68.7251C80.2744 68.7093 79.9353 68.7014 79.5316 68.7014H75.4483V71.5781H74.5399V64.3106H79.683C80.2381 64.3106 80.705 64.3311 81.0835 64.3721C81.4652 64.41 81.779 64.4683 82.0251 64.5472C82.2743 64.626 82.4651 64.7238 82.5976 64.8405C82.7332 64.9572 82.831 65.0944 82.8909 65.2522C82.954 65.4099 82.9903 65.5865 82.9997 65.7821C83.0124 65.9776 83.0187 66.1937 83.0187 66.4303C83.0187 66.7331 82.9966 66.9996 82.9524 67.2299C82.9114 67.457 82.8405 67.651 82.7395 67.8119C82.6386 67.9727 82.5045 68.1021 82.3373 68.1999C82.1702 68.2945 81.9604 68.3607 81.7081 68.3986C81.9604 68.4364 82.1623 68.5027 82.3137 68.5973C82.4651 68.6919 82.5818 68.8149 82.6638 68.9664C82.7458 69.1178 82.7995 69.2976 82.8247 69.5057C82.8531 69.7139 82.8673 69.9505 82.8673 70.2155V71.5781ZM75.4483 67.9444H79.683C80.0867 67.9444 80.4258 67.9381 80.7003 67.9254C80.9778 67.9097 81.2065 67.8829 81.3863 67.845C81.5661 67.8071 81.7049 67.7535 81.8027 67.6841C81.9005 67.6147 81.9714 67.5233 82.0156 67.4097C82.0629 67.2961 82.0897 67.1605 82.096 67.0028C82.1055 66.8419 82.1102 66.6511 82.1102 66.4303C82.1102 66.2253 82.1055 66.0486 82.096 65.9004C82.0897 65.7521 82.0629 65.6275 82.0156 65.5266C81.9714 65.4256 81.9005 65.3452 81.8027 65.2853C81.7049 65.2253 81.5661 65.1796 81.3863 65.1481C81.2065 65.1134 80.9778 65.0913 80.7003 65.0818C80.4258 65.0724 80.0867 65.0676 79.683 65.0676H75.4483V67.9444ZM92.4106 66.5817C92.4106 66.2032 92.3696 65.9035 92.2876 65.6827C92.2056 65.4619 92.07 65.2947 91.8807 65.1812C91.6914 65.0676 91.4423 64.9951 91.1331 64.9635C90.824 64.932 90.4423 64.9162 89.9881 64.9162H87.5561C87.1524 64.9162 86.8117 64.9288 86.5341 64.9541C86.2597 64.9762 86.0326 65.0235 85.8528 65.096C85.673 65.1686 85.5342 65.2727 85.4364 65.4083C85.3387 65.5439 85.2677 65.7237 85.2235 65.9477C85.1794 66.1716 85.1541 66.4476 85.1478 66.7757C85.1415 67.1006 85.1384 67.4901 85.1384 67.9444C85.1384 68.3986 85.1415 68.7897 85.1478 69.1178C85.1573 69.4427 85.1841 69.7171 85.2283 69.941C85.2724 70.165 85.3418 70.3448 85.4364 70.4804C85.5342 70.6161 85.673 70.7202 85.8528 70.7927C86.0326 70.8653 86.2597 70.9141 86.5341 70.9394C86.8117 70.9615 87.1524 70.9725 87.5561 70.9725H89.9929C90.3461 70.9725 90.6505 70.963 90.906 70.9441C91.1615 70.9252 91.3792 70.8905 91.559 70.84C91.7388 70.7895 91.8839 70.7202 91.9943 70.6318C92.1047 70.5435 92.1898 70.4331 92.2498 70.3006C92.3128 70.165 92.3554 70.0041 92.3775 69.818C92.3996 69.6288 92.4106 69.408 92.4106 69.1556V68.7014H88.7674V67.9444H93.3191V69.1556C93.3191 69.4584 93.3001 69.7329 93.2623 69.9789C93.2244 70.2218 93.1566 70.4394 93.0588 70.6318C92.9642 70.8211 92.8365 70.9851 92.6756 71.1239C92.5147 71.2627 92.3113 71.3778 92.0652 71.4693C91.8192 71.5576 91.5258 71.6223 91.1852 71.6633C90.8445 71.7075 90.4471 71.7295 89.9929 71.7295H87.5561C87.001 71.7295 86.5326 71.6948 86.1509 71.6254C85.7724 71.5592 85.4601 71.4583 85.2141 71.3226C84.968 71.1838 84.7772 71.0103 84.6416 70.8022C84.5091 70.594 84.4113 70.3495 84.3482 70.0688C84.2883 69.7881 84.2536 69.471 84.2441 69.1178C84.2347 68.7645 84.2299 68.3733 84.2299 67.9444C84.2299 67.5154 84.2347 67.1242 84.2441 66.771C84.2536 66.4177 84.2883 66.1007 84.3482 65.8199C84.4113 65.5392 84.5091 65.2947 84.6416 65.0866C84.7772 64.8784 84.968 64.7065 85.2141 64.5708C85.4601 64.432 85.7724 64.3295 86.1509 64.2633C86.5326 64.1939 87.001 64.1592 87.5561 64.1592H89.9881C90.4423 64.1592 90.8398 64.1813 91.1804 64.2254C91.5211 64.2664 91.8145 64.3311 92.0605 64.4194C92.3065 64.5046 92.51 64.6134 92.6709 64.7459C92.8349 64.8784 92.9642 65.0345 93.0588 65.2143C93.1566 65.3941 93.2244 65.5976 93.2623 65.8247C93.3001 66.0518 93.3191 66.3041 93.3191 66.5817H92.4106ZM100.596 64.1592C101.151 64.1592 101.618 64.1939 101.997 64.2633C102.378 64.3295 102.692 64.432 102.938 64.5708C103.184 64.7065 103.373 64.8784 103.506 65.0866C103.638 65.2947 103.735 65.5392 103.795 65.8199C103.858 66.1007 103.894 66.4177 103.903 66.771C103.916 67.1242 103.922 67.5154 103.922 67.9444C103.922 68.3733 103.916 68.7645 103.903 69.1178C103.894 69.471 103.858 69.7881 103.795 70.0688C103.735 70.3495 103.638 70.594 103.506 70.8022C103.373 71.0103 103.184 71.1838 102.938 71.3226C102.692 71.4583 102.378 71.5592 101.997 71.6254C101.618 71.6948 101.151 71.7295 100.596 71.7295H97.8613C97.3061 71.7295 96.8377 71.6948 96.456 71.6254C96.0775 71.5592 95.7652 71.4583 95.5192 71.3226C95.2732 71.1838 95.0823 71.0103 94.9467 70.8022C94.8142 70.594 94.7164 70.3495 94.6533 70.0688C94.5934 69.7881 94.5587 69.471 94.5493 69.1178C94.5398 68.7645 94.5351 68.3733 94.5351 67.9444C94.5351 67.5154 94.5398 67.1242 94.5493 66.771C94.5587 66.4177 94.5934 66.1007 94.6533 65.8199C94.7164 65.5392 94.8142 65.2947 94.9467 65.0866C95.0823 64.8784 95.2732 64.7065 95.5192 64.5708C95.7652 64.432 96.0775 64.3295 96.456 64.2633C96.8377 64.1939 97.3061 64.1592 97.8613 64.1592H100.596ZM100.596 70.9725C100.997 70.9725 101.334 70.9615 101.609 70.9394C101.886 70.9141 102.115 70.8653 102.295 70.7927C102.474 70.7202 102.613 70.6161 102.711 70.4804C102.809 70.3448 102.88 70.165 102.924 69.941C102.968 69.7171 102.993 69.4427 103 69.1178C103.009 68.7897 103.014 68.3986 103.014 67.9444C103.014 67.4901 103.009 67.1006 103 66.7757C102.993 66.4476 102.968 66.1716 102.924 65.9477C102.88 65.7237 102.809 65.5439 102.711 65.4083C102.613 65.2727 102.474 65.1686 102.295 65.096C102.118 65.0235 101.891 64.9762 101.613 64.9541C101.339 64.9288 101 64.9162 100.596 64.9162H97.8613C97.4575 64.9162 97.1169 64.9288 96.8393 64.9541C96.5649 64.9762 96.3378 65.0235 96.158 65.096C95.9782 65.1686 95.8394 65.2727 95.7416 65.4083C95.6438 65.5439 95.5728 65.7237 95.5287 65.9477C95.4845 66.1716 95.4593 66.4476 95.453 66.7757C95.4467 67.1006 95.4435 67.4901 95.4435 67.9444C95.4435 68.3986 95.4467 68.7897 95.453 69.1178C95.4624 69.4427 95.4892 69.7171 95.5334 69.941C95.5776 70.165 95.647 70.3448 95.7416 70.4804C95.8394 70.6161 95.9782 70.7202 96.158 70.7927C96.3378 70.8653 96.5649 70.9141 96.8393 70.9394C97.1169 70.9615 97.4575 70.9725 97.8613 70.9725H100.596Z" fill="#264F2D" />
			<path d="M11.7675 66.5817H11.5159V66.8333H11.7675V66.5817ZM5.89105 64.9541L5.91123 65.2049L5.91383 65.2046L5.89105 64.9541ZM4.50473 66.7757L4.75627 66.7806L4.75627 66.7805L4.50473 66.7757ZM4.50473 69.1178L4.25318 69.1226L4.25325 69.1251L4.50473 69.1178ZM4.79335 70.4804L4.587 70.6244L4.58927 70.6276L4.79335 70.4804ZM5.89105 70.9394L5.86801 71.1899L5.8711 71.1902L5.89105 70.9394ZM11.6067 70.3006L11.3785 70.1945L11.3774 70.1969L11.6067 70.3006ZM11.7344 69.818L11.9842 69.8477L11.9843 69.8472L11.7344 69.818ZM11.7675 68.7014H12.0191V68.4498H11.7675V68.7014ZM8.1243 68.7014H7.87272V68.953H8.1243V68.7014ZM8.1243 67.9444V67.6928H7.87272V67.9444H8.1243ZM12.676 67.9444H12.9276V67.6928H12.676V67.9444ZM12.6192 69.9789L12.8678 70.0176L12.8679 70.0171L12.6192 69.9789ZM12.4157 70.6318L12.1915 70.5178L12.1907 70.5193L12.4157 70.6318ZM11.4221 71.4693L11.5071 71.7061L11.5098 71.7051L11.4221 71.4693ZM10.5421 71.6633L10.512 71.4135L10.5097 71.4138L10.5421 71.6633ZM5.5078 71.6254L5.55281 71.3779L5.55117 71.3776L5.5078 71.6254ZM4.57097 71.3226L4.44736 71.5418L4.44951 71.5429L4.57097 71.3226ZM3.99847 70.8022L3.7862 70.9372L3.78767 70.9395L3.99847 70.8022ZM3.70512 70.0688L3.45906 70.1213L3.45965 70.1239L3.70512 70.0688ZM3.70512 65.8199L3.45964 65.7648L3.45907 65.7674L3.70512 65.8199ZM3.99847 65.0866L3.78766 64.9492L3.78621 64.9515L3.99847 65.0866ZM4.57097 64.5708L4.69244 64.7912L4.69458 64.7899L4.57097 64.5708ZM5.5078 64.2633L5.55117 64.5111L5.55281 64.5108L5.5078 64.2633ZM10.5374 64.2254L10.505 64.4749L10.5073 64.4752L10.5374 64.2254ZM11.4174 64.4194L11.3324 64.6562L11.3351 64.6572L11.4174 64.4194ZM12.0278 64.7459L11.8678 64.9401L11.8697 64.9416L12.0278 64.7459ZM12.4157 65.2143L12.1931 65.3315L12.1947 65.3345L12.4157 65.2143ZM12.676 66.5817V66.8333H12.9276V66.5817H12.676ZM12.0191 66.5817C12.0191 66.1892 11.9772 65.8558 11.8804 65.5951L11.4087 65.7703C11.4759 65.9513 11.5159 66.2172 11.5159 66.5817H12.0191ZM11.8804 65.5951C11.7799 65.3246 11.6087 65.1104 11.367 64.9655L11.1082 65.3969C11.245 65.479 11.3451 65.5992 11.4087 65.7703L11.8804 65.5951ZM11.367 64.9655C11.1359 64.8268 10.8475 64.7471 10.5156 64.7133L10.4645 65.2138C10.7509 65.243 10.9608 65.3085 11.1082 65.3969L11.367 64.9655ZM10.5156 64.7133C10.1951 64.6805 9.80427 64.6646 9.34502 64.6646V65.1678C9.79422 65.1678 10.1668 65.1834 10.4645 65.2138L10.5156 64.7133ZM9.34502 64.6646H6.91305V65.1678H9.34502V64.6646ZM6.91305 64.6646C6.50474 64.6646 6.15595 64.6774 5.86828 64.7035L5.91383 65.2046C6.18131 65.1803 6.51386 65.1678 6.91305 65.1678V64.6646ZM5.87088 64.7033C5.5808 64.7266 5.32662 64.7776 5.11558 64.8627L5.30386 65.3293C5.45241 65.2694 5.65246 65.2257 5.91123 65.2048L5.87088 64.7033ZM5.11558 64.8627C4.8989 64.9501 4.71903 65.0812 4.58927 65.2612L4.99743 65.5554C5.06324 65.4641 5.16095 65.387 5.30386 65.3293L5.11558 64.8627ZM4.58927 65.2612C4.46408 65.4348 4.38236 65.6518 4.3336 65.899L4.82727 65.9964C4.86684 65.7957 4.92706 65.653 4.99743 65.5554L4.58927 65.2612ZM4.3336 65.899C4.28566 66.1422 4.25968 66.4339 4.25319 66.7709L4.75627 66.7805C4.76241 66.4614 4.78689 66.2011 4.82727 65.9964L4.3336 65.899ZM4.2532 66.7708C4.24685 67.0978 4.24369 67.4891 4.24369 67.9444H4.74686C4.74686 67.4912 4.75 67.1033 4.75627 66.7806L4.2532 66.7708ZM4.24369 67.9444C4.24369 68.3996 4.24685 68.7925 4.25319 69.1226L4.75627 69.1129C4.75 68.787 4.74686 68.3975 4.74686 67.9444H4.24369ZM4.25325 69.1251C4.26297 69.4586 4.29063 69.7478 4.33834 69.9897L4.832 69.8924C4.79139 69.6864 4.76542 69.4268 4.75621 69.1104L4.25325 69.1251ZM4.33834 69.9897C4.38684 70.2357 4.46637 70.4514 4.58702 70.6244L4.99968 70.3365C4.93107 70.2381 4.87182 70.0943 4.832 69.8924L4.33834 69.9897ZM4.58927 70.6276C4.71903 70.8075 4.8989 70.9386 5.11558 71.026L5.30386 70.5594C5.16095 70.5017 5.06324 70.4246 4.99743 70.3333L4.58927 70.6276ZM5.11558 71.026C5.32545 71.1107 5.57856 71.1633 5.86802 71.1899L5.91409 70.6888C5.6547 70.665 5.45358 70.6198 5.30386 70.5594L5.11558 71.026ZM5.8711 71.1902C6.15754 71.213 6.50531 71.2241 6.91305 71.2241V70.7209C6.51328 70.7209 6.17973 70.71 5.911 70.6886L5.8711 71.1902ZM6.91305 71.2241H9.34975V70.7209H6.91305V71.2241ZM9.34975 71.2241C9.7071 71.2241 10.018 71.2145 10.2815 71.195L10.2443 70.6932C9.99684 70.7115 9.69897 70.7209 9.34975 70.7209V71.2241ZM10.2815 71.195C10.548 71.1753 10.7832 71.1386 10.9839 71.0822L10.8479 70.5978C10.6889 70.6424 10.4888 70.6751 10.2443 70.6932L10.2815 71.195ZM10.9839 71.0822C11.1863 71.0254 11.3646 70.9433 11.5083 70.8283L11.194 70.4354C11.1169 70.497 11.0051 70.5537 10.8479 70.5978L10.9839 71.0822ZM11.5083 70.8283C11.6506 70.7144 11.7601 70.5719 11.8359 70.4043L11.3774 70.1969C11.3334 70.2943 11.2725 70.3726 11.194 70.4354L11.5083 70.8283ZM11.8348 70.4067C11.9115 70.2417 11.9598 70.0538 11.9842 69.8477L11.4846 69.7884C11.4649 69.9544 11.428 70.0883 11.3785 70.1945L11.8348 70.4067ZM11.9843 69.8472C12.0078 69.6457 12.0191 69.4148 12.0191 69.1556H11.5159C11.5159 69.4011 11.5052 69.6118 11.4845 69.7889L11.9843 69.8472ZM12.0191 69.1556V68.7014H11.5159V69.1556H12.0191ZM11.7675 68.4498H8.1243V68.953H11.7675V68.4498ZM8.37589 68.7014V67.9444H7.87272V68.7014H8.37589ZM8.1243 68.1959H12.676V67.6928H8.1243V68.1959ZM12.4244 67.9444V69.1556H12.9276V67.9444H12.4244ZM12.4244 69.1556C12.4244 69.4483 12.4061 69.7096 12.3705 69.9406L12.8679 70.0171C12.908 69.7561 12.9276 69.4686 12.9276 69.1556H12.4244ZM12.3706 69.9401C12.3363 70.1604 12.2757 70.3521 12.1915 70.5179L12.64 70.7458C12.7514 70.5267 12.8264 70.2831 12.8678 70.0176L12.3706 69.9401ZM12.1907 70.5193C12.111 70.6787 12.0039 70.8163 11.8682 70.9334L12.1968 71.3144C12.3828 71.154 12.5312 70.9635 12.6408 70.7443L12.1907 70.5193ZM11.8682 70.9334C11.7346 71.0487 11.5588 71.1501 11.3345 71.2335L11.5098 71.7051C11.7775 71.6056 12.0087 71.4767 12.1968 71.3144L11.8682 70.9334ZM11.3371 71.2325C11.1134 71.3128 10.8394 71.3741 10.512 71.4135L10.5721 71.9131C10.9261 71.8705 11.2388 71.8024 11.5071 71.7061L11.3371 71.2325ZM10.5097 71.4138C10.1826 71.4562 9.79638 71.4779 9.34975 71.4779V71.9811C9.81157 71.9811 10.2203 71.9587 10.5744 71.9128L10.5097 71.4138ZM9.34975 71.4779H6.91305V71.9811H9.34975V71.4779ZM6.91305 71.4779C6.36712 71.4779 5.9148 71.4437 5.55281 71.3779L5.4628 71.873C5.86415 71.9459 6.34866 71.9811 6.91305 71.9811V71.4779ZM5.55117 71.3776C5.19067 71.3145 4.90702 71.2206 4.69243 71.1023L4.44951 71.5429C4.727 71.6959 5.0679 71.8039 5.46444 71.8733L5.55117 71.3776ZM4.69458 71.1035C4.47889 70.9818 4.31997 70.8348 4.20926 70.6648L3.78767 70.9395C3.94823 71.1859 4.17098 71.3858 4.44736 71.5418L4.69458 71.1035ZM4.21072 70.6671C4.09619 70.4871 4.00833 70.2706 3.95058 70.0136L3.45965 70.1239C3.52807 70.4284 3.63578 70.7008 3.78621 70.9372L4.21072 70.6671ZM3.95116 70.0163C3.89508 69.7536 3.86166 69.4523 3.85252 69.111L3.34953 69.1245C3.35931 69.4898 3.39529 69.8225 3.45907 70.1213L3.95116 70.0163ZM3.85252 69.111C3.84313 68.7604 3.83841 68.3716 3.83841 67.9444H3.33524C3.33524 68.3751 3.33999 68.7686 3.34953 69.1245L3.85252 69.111ZM3.83841 67.9444C3.83841 67.5172 3.84313 67.1283 3.85252 66.7777L3.34953 66.7642C3.33999 67.1202 3.33524 67.5136 3.33524 67.9444H3.83841ZM3.85252 66.7777C3.86166 66.4364 3.89508 66.1351 3.95116 65.8725L3.45907 65.7674C3.39529 66.0662 3.35931 66.3989 3.34953 66.7642L3.85252 66.7777ZM3.95058 65.8751C4.00833 65.6181 4.09619 65.4016 4.21072 65.2216L3.78621 64.9515C3.63578 65.1879 3.52807 65.4603 3.45965 65.7648L3.95058 65.8751ZM4.20926 65.2239C4.31957 65.0546 4.47775 64.9095 4.69243 64.7911L4.44951 64.3505C4.17213 64.5034 3.94863 64.7022 3.78767 64.9492L4.20926 65.2239ZM4.69458 64.7899C4.90852 64.6693 5.19138 64.5741 5.55117 64.5111L5.46444 64.0155C5.0672 64.085 4.7255 64.1948 4.44736 64.3517L4.69458 64.7899ZM5.55281 64.5108C5.9148 64.445 6.36712 64.4108 6.91305 64.4108V63.9076C6.34866 63.9076 5.86415 63.9428 5.4628 64.0158L5.55281 64.5108ZM6.91305 64.4108H9.34502V63.9076H6.91305V64.4108ZM9.34502 64.4108C9.79165 64.4108 10.1778 64.4325 10.505 64.4749L10.5697 63.9759C10.2155 63.93 9.80684 63.9076 9.34502 63.9076V64.4108ZM10.5073 64.4752C10.8347 64.5146 11.1087 64.5759 11.3324 64.6562L11.5024 64.1826C11.2341 64.0863 10.9214 64.0183 10.5674 63.9756L10.5073 64.4752ZM11.3351 64.6572C11.5597 64.7349 11.735 64.8307 11.8678 64.9401L12.1877 64.5517C11.9988 64.3961 11.7672 64.2743 11.4997 64.1817L11.3351 64.6572ZM11.8697 64.9416C12.0081 65.0534 12.115 65.1831 12.1931 65.3315L12.6384 65.0971C12.5272 64.8859 12.3755 64.7033 12.1858 64.5502L11.8697 64.9416ZM12.1947 65.3345C12.2776 65.4868 12.3372 65.6631 12.371 65.866L12.8674 65.7833C12.8255 65.532 12.7495 65.3014 12.6368 65.0941L12.1947 65.3345ZM12.371 65.866C12.4062 66.077 12.4244 66.3153 12.4244 66.5817H12.9276C12.9276 66.293 12.9079 66.0265 12.8674 65.7833L12.371 65.866ZM12.676 66.3301H11.7675V66.8333H12.676V66.3301ZM22.5222 71.5781V71.8297H22.7737V71.5781H22.5222ZM21.6137 71.5781H21.3621V71.8297H21.6137V71.5781ZM21.5995 69.6477L21.3481 69.6575L21.3484 69.6628L21.5995 69.6477ZM21.5191 69.236L21.2845 69.3273L21.2869 69.3328L21.5191 69.236ZM20.2037 68.7251L20.1893 68.9762L20.1923 68.9764L20.2037 68.7251ZM15.1032 68.7014V68.4498H14.8516V68.7014H15.1032ZM15.1032 71.5781V71.8297H15.3548V71.5781H15.1032ZM14.1948 71.5781H13.9432V71.8297H14.1948V71.5781ZM14.1948 64.3106V64.059H13.9432V64.3106H14.1948ZM20.7384 64.3721L20.7113 64.6222L20.7136 64.6225L20.7384 64.3721ZM21.68 64.5472L21.6032 64.7867L21.604 64.787L21.68 64.5472ZM22.2525 64.8405L22.0861 65.0293L22.0884 65.0312L22.2525 64.8405ZM22.5458 65.2522L22.3106 65.3415L22.3122 65.3456L22.5458 65.2522ZM22.6546 65.7821L22.4033 65.7942L22.4036 65.7983L22.6546 65.7821ZM22.6073 67.2299L22.3602 67.1825L22.3597 67.1852L22.6073 67.2299ZM21.9922 68.1999L22.1162 68.4188L22.1193 68.417L21.9922 68.1999ZM21.3629 68.3986L21.3256 68.1498V68.6474L21.3629 68.3986ZM22.4796 69.5057L22.2298 69.536L22.2303 69.5397L22.4796 69.5057ZM15.1032 67.9444H14.8516V68.1959H15.1032V67.9444ZM20.3551 67.9254L20.3667 68.1768L20.3694 68.1766L20.3551 67.9254ZM21.6705 67.4097L21.4382 67.3129L21.436 67.3185L21.6705 67.4097ZM21.7509 67.0028L21.4997 66.988L21.4995 66.9927L21.7509 67.0028ZM21.7509 65.9004L21.4995 65.9111L21.4999 65.9164L21.7509 65.9004ZM21.6705 65.5266L21.4399 65.6275L21.4427 65.6334L21.6705 65.5266ZM21.0412 65.1481L20.9935 65.3951L20.9977 65.3959L21.0412 65.1481ZM20.3551 65.0818L20.3465 65.3333L20.3466 65.3333L20.3551 65.0818ZM15.1032 65.0676V64.816H14.8516V65.0676H15.1032ZM22.5222 71.3265H21.6137V71.8297H22.5222V71.3265ZM21.8653 71.5781V70.2155H21.3621V71.5781H21.8653ZM21.8653 70.2155C21.8653 69.9914 21.8605 69.7969 21.8507 69.6326L21.3484 69.6628C21.3575 69.8139 21.3621 69.9979 21.3621 70.2155H21.8653ZM21.8509 69.6378C21.8438 69.4558 21.8131 69.2875 21.7513 69.1393L21.2869 69.3328C21.3197 69.4117 21.3426 69.5178 21.3481 69.6575L21.8509 69.6378ZM21.7536 69.1449C21.6919 68.9862 21.5904 68.8548 21.4518 68.7565L21.1606 69.1668C21.2175 69.2072 21.258 69.2588 21.2846 69.3272L21.7536 69.1449ZM21.4518 68.7565C21.315 68.6594 21.139 68.5961 20.9416 68.5546L20.838 69.0469C21.0002 69.0811 21.1018 69.1251 21.1606 69.1668L21.4518 68.7565ZM20.9416 68.5546C20.7436 68.5129 20.5002 68.4867 20.2152 68.4737L20.1923 68.9764C20.4624 68.9887 20.6764 69.0129 20.838 69.0469L20.9416 68.5546ZM20.2182 68.4739C19.9373 68.4577 19.593 68.4498 19.1865 68.4498V68.953C19.5874 68.953 19.9213 68.9608 20.1893 68.9762L20.2182 68.4739ZM19.1865 68.4498H15.1032V68.953H19.1865V68.4498ZM14.8516 68.7014V71.5781H15.3548V68.7014H14.8516ZM15.1032 71.3265H14.1948V71.8297H15.1032V71.3265ZM14.4464 71.5781V64.3106H13.9432V71.5781H14.4464ZM14.1948 64.5622H19.3379V64.059H14.1948V64.5622ZM19.3379 64.5622C19.8877 64.5622 20.3448 64.5825 20.7113 64.6222L20.7655 64.122C20.3749 64.0797 19.8984 64.059 19.3379 64.059V64.5622ZM20.7136 64.6225C21.0852 64.6593 21.38 64.7152 21.6032 64.7867L21.7567 64.3076C21.4878 64.2214 21.1549 64.1606 20.7632 64.1217L20.7136 64.6225ZM21.604 64.787C21.8345 64.86 21.9894 64.9441 22.0862 65.0293L22.4188 64.6517C22.2505 64.5035 22.0238 64.3921 21.7559 64.3073L21.604 64.787ZM22.0884 65.0312C22.1942 65.1223 22.2665 65.2254 22.3106 65.3415L22.781 65.1628C22.7053 64.9635 22.582 64.7921 22.4166 64.6498L22.0884 65.0312ZM22.3122 65.3456C22.3635 65.4738 22.395 65.6224 22.4033 65.7942L22.9059 65.7699C22.8953 65.5506 22.8543 65.346 22.7794 65.1587L22.3122 65.3456ZM22.4036 65.7983C22.4158 65.9875 22.422 66.1981 22.422 66.4303H22.9251C22.9251 66.1894 22.9187 65.9678 22.9057 65.7659L22.4036 65.7983ZM22.422 66.4303C22.422 66.7215 22.4007 66.9716 22.3602 67.1825L22.8544 67.2773C22.9023 67.0277 22.9251 66.7447 22.9251 66.4303H22.422ZM22.3597 67.1852C22.3232 67.3873 22.2619 67.5497 22.1813 67.6782L22.6075 67.9456C22.7288 67.7524 22.8094 67.5267 22.8549 67.2746L22.3597 67.1852ZM22.1813 67.6782C22.1023 67.804 21.9981 67.905 21.8652 67.9827L22.1193 68.417C22.3207 68.2992 22.4846 68.1415 22.6075 67.9456L22.1813 67.6782ZM21.8683 67.9809C21.7351 68.0563 21.5569 68.1151 21.3256 68.1498L21.4003 68.6474C21.6736 68.6064 21.915 68.5327 22.1162 68.4188L21.8683 67.9809ZM21.3256 68.6474C21.5574 68.6821 21.7228 68.7404 21.8352 68.8106L22.1019 68.384C21.9116 68.265 21.6732 68.1907 21.4003 68.1498L21.3256 68.6474ZM21.8352 68.8106C21.9512 68.8831 22.037 68.9745 22.0975 69.0862L22.5399 68.8465C22.4364 68.6554 22.2888 68.5008 22.1019 68.384L21.8352 68.8106ZM22.0975 69.0862C22.1616 69.2045 22.2076 69.3526 22.2298 69.536L22.7293 69.4755C22.7011 69.2425 22.6399 69.0311 22.5399 68.8465L22.0975 69.0862ZM22.2303 69.5397C22.2568 69.7342 22.2706 69.9591 22.2706 70.2155H22.7737C22.7737 69.9419 22.7591 69.6937 22.7288 69.4718L22.2303 69.5397ZM22.2706 70.2155V71.5781H22.7737V70.2155H22.2706ZM15.1032 68.1959H19.3379V67.6928H15.1032V68.1959ZM19.3379 68.1959C19.7439 68.1959 20.0871 68.1896 20.3667 68.1768L20.3436 67.6741C20.0743 67.6865 19.7394 67.6928 19.3379 67.6928V68.1959ZM20.3694 68.1766C20.6539 68.1604 20.8963 68.1326 21.093 68.0912L20.9894 67.5988C20.8265 67.6331 20.6115 67.6589 20.3409 67.6743L20.3694 68.1766ZM21.093 68.0912C21.2904 68.0496 21.4664 67.9864 21.6032 67.8893L21.312 67.479C21.2532 67.5207 21.1516 67.5647 20.9894 67.5988L21.093 68.0912ZM21.6032 67.8893C21.7418 67.7909 21.8433 67.6595 21.905 67.5009L21.436 67.3185C21.4094 67.387 21.3689 67.4385 21.312 67.479L21.6032 67.8893ZM21.9027 67.5065C21.9642 67.3588 21.9951 67.1923 22.0023 67.0129L21.4995 66.9927C21.4941 67.1287 21.4714 67.2335 21.4383 67.3129L21.9027 67.5065ZM22.0021 67.0176C22.0119 66.8504 22.0167 66.6544 22.0167 66.4303H21.5135C21.5135 66.6478 21.5089 66.8335 21.4998 66.988L22.0021 67.0176ZM22.0167 66.4303C22.0167 66.2218 22.0119 66.0395 22.002 65.8843L21.4999 65.9164C21.5089 66.0577 21.5135 66.2288 21.5135 66.4303H22.0167ZM22.0023 65.8897C21.995 65.7186 21.9636 65.5591 21.8983 65.4198L21.4427 65.6334C21.472 65.696 21.4942 65.7857 21.4996 65.9111L22.0023 65.8897ZM21.901 65.4257C21.8353 65.2757 21.7288 65.1564 21.589 65.0708L21.3261 65.4998C21.3819 65.534 21.4173 65.5756 21.44 65.6274L21.901 65.4257ZM21.589 65.0708C21.4531 64.9874 21.2794 64.9344 21.0847 64.9003L20.9977 65.3959C21.1626 65.4248 21.2665 65.4632 21.3261 65.4998L21.589 65.0708ZM21.0889 64.901C20.8914 64.8629 20.6485 64.8401 20.3637 64.8304L20.3466 65.3333C20.617 65.3425 20.8314 65.3638 20.9935 65.3951L21.0889 64.901ZM20.3638 64.8304C20.0855 64.8208 19.7433 64.816 19.3379 64.816V65.3192C19.7399 65.3192 20.0759 65.3239 20.3465 65.3333L20.3638 64.8304ZM19.3379 64.816H15.1032V65.3192H19.3379V64.816ZM14.8516 65.0676V67.9444H15.3548V65.0676H14.8516ZM24.1876 71.5781H23.936V71.8297H24.1876V71.5781ZM24.1876 64.3106V64.059H23.936V64.3106H24.1876ZM31.4552 64.3106H31.7067V64.059H31.4552V64.3106ZM31.4552 65.0676V65.3192H31.7067V65.0676H31.4552ZM25.0961 65.0676V64.816H24.8445V65.0676H25.0961ZM25.0961 67.4901H24.8445V67.7417H25.0961V67.4901ZM31.1523 67.4901H31.4039V67.2386H31.1523V67.4901ZM31.1523 68.2472V68.4988H31.4039V68.2472H31.1523ZM25.0961 68.2472V67.9956H24.8445V68.2472H25.0961ZM25.0961 70.8211H24.8445V71.0727H25.0961V70.8211ZM31.4552 70.8211H31.7067V70.5695H31.4552V70.8211ZM31.4552 71.5781V71.8297H31.7067V71.5781H31.4552ZM24.4392 71.5781V64.3106H23.936V71.5781H24.4392ZM24.1876 64.5622H31.4552V64.059H24.1876V64.5622ZM31.2036 64.3106V65.0676H31.7067V64.3106H31.2036ZM31.4552 64.816H25.0961V65.3192H31.4552V64.816ZM24.8445 65.0676V67.4901H25.3477V65.0676H24.8445ZM25.0961 67.7417H31.1523V67.2386H25.0961V67.7417ZM30.9008 67.4901V68.2472H31.4039V67.4901H30.9008ZM31.1523 67.9956H25.0961V68.4988H31.1523V67.9956ZM24.8445 68.2472V70.8211H25.3477V68.2472H24.8445ZM25.0961 71.0727H31.4552V70.5695H25.0961V71.0727ZM31.2036 70.8211V71.5781H31.7067V70.8211H31.2036ZM31.4552 71.3265H24.1876V71.8297H31.4552V71.3265ZM32.6664 71.5781H32.4148V71.8297H32.6664V71.5781ZM32.6664 64.3106V64.059H32.4148V64.3106H32.6664ZM39.9339 64.3106H40.1855V64.059H39.9339V64.3106ZM39.9339 65.0676V65.3192H40.1855V65.0676H39.9339ZM33.5749 65.0676V64.816H33.3233V65.0676H33.5749ZM33.5749 67.4901H33.3233V67.7417H33.5749V67.4901ZM39.6311 67.4901H39.8827V67.2386H39.6311V67.4901ZM39.6311 68.2472V68.4988H39.8827V68.2472H39.6311ZM33.5749 68.2472V67.9956H33.3233V68.2472H33.5749ZM33.5749 70.8211H33.3233V71.0727H33.5749V70.8211ZM39.9339 70.8211H40.1855V70.5695H39.9339V70.8211ZM39.9339 71.5781V71.8297H40.1855V71.5781H39.9339ZM32.918 71.5781V64.3106H32.4148V71.5781H32.918ZM32.6664 64.5622H39.9339V64.059H32.6664V64.5622ZM39.6824 64.3106V65.0676H40.1855V64.3106H39.6824ZM39.9339 64.816H33.5749V65.3192H39.9339V64.816ZM33.3233 65.0676V67.4901H33.8264V65.0676H33.3233ZM33.5749 67.7417H39.6311V67.2386H33.5749V67.7417ZM39.3795 67.4901V68.2472H39.8827V67.4901H39.3795ZM39.6311 67.9956H33.5749V68.4988H39.6311V67.9956ZM33.3233 68.2472V70.8211H33.8264V68.2472H33.3233ZM33.5749 71.0727H39.9339V70.5695H33.5749V71.0727ZM39.6824 70.8211V71.5781H40.1855V70.8211H39.6824ZM39.9339 71.3265H32.6664V71.8297H39.9339V71.3265ZM42.0536 71.5781V71.8297H42.3052V71.5781H42.0536ZM41.1452 71.5781H40.8936V71.8297H41.1452V71.5781ZM41.1452 64.3106V64.059H40.8936V64.3106H41.1452ZM42.7397 64.3106L42.9134 64.1286L42.8405 64.059H42.7397V64.3106ZM49.4016 70.6697L49.2279 70.8517L49.6532 71.2576V70.6697H49.4016ZM49.4016 64.3106V64.059H49.15V64.3106H49.4016ZM50.3101 64.3106H50.5616V64.059H50.3101V64.3106ZM50.3101 71.5781V71.8297H50.5616V71.5781H50.3101ZM49.0988 71.5781L48.9281 71.7629L49.0004 71.8297H49.0988V71.5781ZM42.0536 65.0676L42.2244 64.8829L41.8021 64.4926V65.0676H42.0536ZM42.0536 71.3265H41.1452V71.8297H42.0536V71.3265ZM41.3968 71.5781V64.3106H40.8936V71.5781H41.3968ZM41.1452 64.5622H42.7397V64.059H41.1452V64.5622ZM42.566 64.4926L49.2279 70.8517L49.5753 70.4877L42.9134 64.1286L42.566 64.4926ZM49.6532 70.6697V64.3106H49.15V70.6697H49.6532ZM49.4016 64.5622H50.3101V64.059H49.4016V64.5622ZM50.0585 64.3106V71.5781H50.5616V64.3106H50.0585ZM50.3101 71.3265H49.0988V71.8297H50.3101V71.3265ZM49.2695 71.3934L42.2244 64.8829L41.8829 65.2524L48.9281 71.7629L49.2695 71.3934ZM41.8021 65.0676V71.5781H42.3052V65.0676H41.8021ZM61.817 66.5817H61.5654V66.8333H61.817V66.5817ZM60.5395 64.9635L60.5137 65.2138L60.5139 65.2138L60.5395 64.9635ZM56.2528 64.9541L56.273 65.2049L56.2756 65.2046L56.2528 64.9541ZM54.8665 66.7757L55.118 66.7806V66.7805L54.8665 66.7757ZM54.8665 69.1178L54.6149 69.1226L54.615 69.1251L54.8665 69.1178ZM55.1551 70.4804L54.9487 70.6244L54.951 70.6276L55.1551 70.4804ZM56.2528 70.9394L56.2297 71.1899L56.2328 71.1902L56.2528 70.9394ZM61.6561 70.3006L61.428 70.1945L61.4269 70.1969L61.6561 70.3006ZM61.7839 69.818L62.0337 69.8477L62.0337 69.8472L61.7839 69.818ZM61.817 69.1556V68.904H61.5654V69.1556H61.817ZM62.7254 69.1556H62.977V68.904H62.7254V69.1556ZM62.6686 69.9789L62.9172 70.0176L62.9173 70.0171L62.6686 69.9789ZM62.4652 70.6318L62.2409 70.5178L62.2402 70.5193L62.4652 70.6318ZM61.4716 71.4693L61.5566 71.7061L61.5593 71.7051L61.4716 71.4693ZM60.5915 71.6633L60.5615 71.4135L60.5592 71.4138L60.5915 71.6633ZM55.8695 71.6254L55.9145 71.3779L55.9129 71.3776L55.8695 71.6254ZM54.9327 71.3226L54.8091 71.5418L54.8112 71.5429L54.9327 71.3226ZM54.3602 70.8022L54.1479 70.9372L54.1494 70.9395L54.3602 70.8022ZM54.0668 70.0688L53.8208 70.1213L53.8214 70.1239L54.0668 70.0688ZM54.0668 65.8199L53.8214 65.7648L53.8208 65.7674L54.0668 65.8199ZM54.3602 65.0866L54.1494 64.9492L54.1479 64.9515L54.3602 65.0866ZM54.9327 64.5708L55.0542 64.7912L55.0563 64.7899L54.9327 64.5708ZM55.8695 64.2633L55.9129 64.5111L55.9145 64.5108L55.8695 64.2633ZM60.5915 64.2254L60.5592 64.4749L60.5615 64.4752L60.5915 64.2254ZM61.4716 64.4194L61.3866 64.6562L61.3893 64.6572L61.4716 64.4194ZM62.4652 65.2143L62.2425 65.3315L62.2442 65.3345L62.4652 65.2143ZM62.7254 66.5817V66.8333H62.977V66.5817H62.7254ZM62.0686 66.5817C62.0686 66.1892 62.0266 65.8558 61.9298 65.5951L61.4581 65.7703C61.5253 65.9513 61.5654 66.2172 61.5654 66.5817H62.0686ZM61.9298 65.5951C61.8293 65.3246 61.6582 65.1104 61.4165 64.9655L61.1576 65.3969C61.2945 65.479 61.3946 65.5992 61.4581 65.7703L61.9298 65.5951ZM61.4165 64.9655C61.1854 64.8268 60.8969 64.7471 60.565 64.7133L60.5139 65.2138C60.8003 65.243 61.0102 65.3085 61.1576 65.3969L61.4165 64.9655ZM60.5653 64.7133C60.2478 64.6805 59.8584 64.6646 59.3992 64.6646V65.1678C59.8484 65.1678 60.2193 65.1834 60.5137 65.2138L60.5653 64.7133ZM59.3992 64.6646H57.2748V65.1678H59.3992V64.6646ZM57.2748 64.6646C56.8665 64.6646 56.5177 64.6774 56.23 64.7035L56.2756 65.2046C56.543 65.1803 56.8756 65.1678 57.2748 65.1678V64.6646ZM56.2326 64.7033C55.9425 64.7266 55.6883 64.7776 55.4773 64.8627L55.6656 65.3293C55.8141 65.2694 56.0142 65.2257 56.2729 65.2048L56.2326 64.7033ZM55.4773 64.8627C55.2606 64.9501 55.0807 65.0812 54.951 65.2612L55.3592 65.5554C55.425 65.4641 55.5227 65.387 55.6656 65.3293L55.4773 64.8627ZM54.951 65.2612C54.8258 65.4348 54.7441 65.6518 54.6953 65.899L55.189 65.9964C55.2286 65.7957 55.2888 65.653 55.3592 65.5554L54.951 65.2612ZM54.6953 65.899C54.6474 66.1422 54.6214 66.4339 54.6149 66.7709L55.118 66.7805C55.1241 66.4614 55.1486 66.2011 55.189 65.9964L54.6953 65.899ZM54.6149 66.7708C54.6086 67.0978 54.6054 67.4891 54.6054 67.9444H55.1086C55.1086 67.4912 55.1117 67.1033 55.118 66.7806L54.6149 66.7708ZM54.6054 67.9444C54.6054 68.3996 54.6086 68.7925 54.6149 69.1226L55.118 69.1129C55.1117 68.787 55.1086 68.3975 55.1086 67.9444H54.6054ZM54.615 69.1251C54.6247 69.4586 54.6523 69.7478 54.7001 69.9897L55.1937 69.8924C55.1531 69.6864 55.1271 69.4268 55.1179 69.1104L54.615 69.1251ZM54.7001 69.9897C54.7486 70.2357 54.8281 70.4514 54.9487 70.6244L55.3614 70.3365C55.2928 70.2381 55.2335 70.0943 55.1937 69.8924L54.7001 69.9897ZM54.951 70.6276C55.0807 70.8075 55.2606 70.9386 55.4773 71.026L55.6656 70.5594C55.5227 70.5017 55.425 70.4246 55.3592 70.3333L54.951 70.6276ZM55.4773 71.026C55.6872 71.1107 55.9403 71.1633 56.2297 71.1899L56.2758 70.6888C56.0164 70.665 55.8153 70.6198 55.6656 70.5594L55.4773 71.026ZM56.2328 71.1902C56.5193 71.213 56.867 71.2241 57.2748 71.2241V70.7209C56.875 70.7209 56.5415 70.71 56.2727 70.6886L56.2328 71.1902ZM57.2748 71.2241H59.3992V70.7209H57.2748V71.2241ZM59.3992 71.2241C59.7565 71.2241 60.0675 71.2145 60.331 71.195L60.2938 70.6932C60.0463 70.7115 59.7484 70.7209 59.3992 70.7209V71.2241ZM60.331 71.195C60.5975 71.1753 60.8327 71.1386 61.0333 71.0822L60.8973 70.5978C60.7384 70.6424 60.5383 70.6751 60.2938 70.6932L60.331 71.195ZM61.0333 71.0822C61.2357 71.0254 61.414 70.9433 61.5578 70.8283L61.2434 70.4354C61.1664 70.497 61.0545 70.5537 60.8973 70.5978L61.0333 71.0822ZM61.5578 70.8283C61.7001 70.7144 61.8095 70.5719 61.8853 70.4043L61.4269 70.1969C61.3828 70.2943 61.3219 70.3726 61.2434 70.4354L61.5578 70.8283ZM61.8842 70.4067C61.961 70.2417 62.0092 70.0538 62.0337 69.8477L61.534 69.7884C61.5143 69.9544 61.4774 70.0883 61.428 70.1945L61.8842 70.4067ZM62.0337 69.8472C62.0573 69.6457 62.0686 69.4148 62.0686 69.1556H61.5654C61.5654 69.4011 61.5546 69.6118 61.534 69.7889L62.0337 69.8472ZM61.817 69.4072H62.7254V68.904H61.817V69.4072ZM62.4738 69.1556C62.4738 69.4483 62.4555 69.7096 62.42 69.9406L62.9173 70.0171C62.9575 69.7561 62.977 69.4686 62.977 69.1556H62.4738ZM62.4201 69.9401C62.3857 70.1604 62.3251 70.3521 62.2409 70.5179L62.6895 70.7458C62.8008 70.5267 62.8758 70.2831 62.9172 70.0176L62.4201 69.9401ZM62.2402 70.5193C62.1605 70.6787 62.0534 70.8163 61.9176 70.9334L62.2463 71.3144C62.4322 71.154 62.5806 70.9635 62.6902 70.7443L62.2402 70.5193ZM61.9176 70.9334C61.784 71.0487 61.6083 71.1501 61.3839 71.2335L61.5593 71.7051C61.827 71.6056 62.0581 71.4767 62.2463 71.3144L61.9176 70.9334ZM61.3866 71.2325C61.1628 71.3128 60.8888 71.3741 60.5615 71.4135L60.6216 71.9131C60.9755 71.8705 61.2883 71.8024 61.5566 71.7061L61.3866 71.2325ZM60.5592 71.4138C60.232 71.4562 59.8458 71.4779 59.3992 71.4779V71.9811C59.861 71.9811 60.2697 71.9587 60.6239 71.9128L60.5592 71.4138ZM59.3992 71.4779H57.2748V71.9811H59.3992V71.4779ZM57.2748 71.4779C56.7288 71.4779 56.2765 71.4437 55.9145 71.3779L55.8245 71.873C56.2259 71.9459 56.7104 71.9811 57.2748 71.9811V71.4779ZM55.9129 71.3776C55.5524 71.3145 55.2687 71.2206 55.0542 71.1023L54.8112 71.5429C55.0887 71.6959 55.4296 71.8039 55.8262 71.8733L55.9129 71.3776ZM55.0563 71.1035C54.8406 70.9818 54.6817 70.8348 54.571 70.6648L54.1494 70.9395C54.31 71.1859 54.5327 71.3858 54.8091 71.5418L55.0563 71.1035ZM54.5724 70.6671C54.4579 70.4871 54.3701 70.2706 54.3123 70.0136L53.8214 70.1239C53.8898 70.4284 53.9975 70.7008 54.1479 70.9372L54.5724 70.6671ZM54.3129 70.0163C54.2568 69.7536 54.2234 69.4523 54.2142 69.111L53.7113 69.1245C53.721 69.4898 53.757 69.8225 53.8208 70.1213L54.3129 70.0163ZM54.2142 69.111C54.2048 68.7604 54.2001 68.3716 54.2001 67.9444H53.697C53.697 68.3751 53.7017 68.7686 53.7113 69.1245L54.2142 69.111ZM54.2001 67.9444C54.2001 67.5172 54.2048 67.1283 54.2142 66.7777L53.7113 66.7642C53.7017 67.1202 53.697 67.5136 53.697 67.9444H54.2001ZM54.2142 66.7777C54.2234 66.4364 54.2568 66.1351 54.3129 65.8725L53.8208 65.7674C53.757 66.0662 53.721 66.3989 53.7113 66.7642L54.2142 66.7777ZM54.3123 65.8751C54.3701 65.6181 54.4579 65.4016 54.5724 65.2216L54.1479 64.9515C53.9975 65.1879 53.8898 65.4603 53.8214 65.7648L54.3123 65.8751ZM54.571 65.2239C54.6813 65.0546 54.8395 64.9095 55.0542 64.7911L54.8112 64.3505C54.5338 64.5034 54.3104 64.7022 54.1494 64.9492L54.571 65.2239ZM55.0563 64.7899C55.2702 64.6693 55.5531 64.5741 55.9129 64.5111L55.8262 64.0155C55.4289 64.085 55.0872 64.1948 54.8091 64.3517L55.0563 64.7899ZM55.9145 64.5108C56.2765 64.445 56.7288 64.4108 57.2748 64.4108V63.9076C56.7104 63.9076 56.2259 63.9428 55.8245 64.0158L55.9145 64.5108ZM57.2748 64.4108H59.3992V63.9076H57.2748V64.4108ZM59.3992 64.4108C59.8458 64.4108 60.232 64.4325 60.5592 64.4749L60.6239 63.9759C60.2697 63.93 59.861 63.9076 59.3992 63.9076V64.4108ZM60.5615 64.4752C60.8888 64.5146 61.1628 64.5759 61.3866 64.6562L61.5566 64.1826C61.2883 64.0863 60.9755 64.0183 60.6216 63.9756L60.5615 64.4752ZM61.3893 64.6572C61.6138 64.7349 61.7892 64.8307 61.922 64.9401L62.2419 64.5517C62.053 64.3961 61.8214 64.2743 61.5539 64.1817L61.3893 64.6572ZM61.922 64.9401C62.0577 65.0519 62.1639 65.182 62.2426 65.3315L62.6878 65.0971C62.5772 64.887 62.4279 64.7049 62.2419 64.5517L61.922 64.9401ZM62.2442 65.3345C62.327 65.4868 62.3867 65.6631 62.4205 65.866L62.9168 65.7833C62.8749 65.532 62.7989 65.3014 62.6862 65.0941L62.2442 65.3345ZM62.4205 65.866C62.4556 66.077 62.4738 66.3153 62.4738 66.5817H62.977C62.977 66.293 62.9573 66.0265 62.9168 65.7833L62.4205 65.866ZM62.7254 66.3301H61.817V66.8333H62.7254V66.3301ZM71.3603 69.9126L71.5812 69.7922L71.5097 69.6611H71.3603V69.9126ZM65.6069 69.9126V69.6611H65.4575L65.386 69.7922L65.6069 69.9126ZM64.6984 71.5781V71.8297H64.8478L64.9193 71.6986L64.6984 71.5781ZM63.6386 71.5781L63.4213 71.4514L63.2006 71.8297H63.6386V71.5781ZM67.878 64.3106V64.059H67.7335L67.6607 64.1838L67.878 64.3106ZM69.0892 64.3106L69.3066 64.1838L69.2337 64.059H69.0892V64.3106ZM73.3286 71.5781V71.8297H73.7667L73.5459 71.4514L73.3286 71.5781ZM72.2688 71.5781L72.0479 71.6986L72.1194 71.8297H72.2688V71.5781ZM70.9061 69.1556V69.4072H71.3396L71.1246 69.0308L70.9061 69.1556ZM68.4836 64.9162L68.702 64.7914L68.4836 64.4091L68.2652 64.7914L68.4836 64.9162ZM66.0611 69.1556L65.8427 69.0308L65.6276 69.4072H66.0611V69.1556ZM71.3603 69.6611H65.6069V70.1642H71.3603V69.6611ZM65.386 69.7922L64.4776 71.4577L64.9193 71.6986L65.8277 70.0331L65.386 69.7922ZM64.6984 71.3265H63.6386V71.8297H64.6984V71.3265ZM63.8559 71.7049L68.0953 64.4374L67.6607 64.1838L63.4213 71.4514L63.8559 71.7049ZM67.878 64.5622H69.0892V64.059H67.878V64.5622ZM68.8719 64.4374L73.1113 71.7049L73.5459 71.4514L69.3066 64.1838L68.8719 64.4374ZM73.3286 71.3265H72.2688V71.8297H73.3286V71.3265ZM72.4896 71.4577L71.5812 69.7922L71.1395 70.0331L72.0479 71.6986L72.4896 71.4577ZM71.1246 69.0308L68.702 64.7914L68.2652 65.041L70.6877 69.2804L71.1246 69.0308ZM68.2652 64.7914L65.8427 69.0308L66.2795 69.2804L68.702 65.041L68.2652 64.7914ZM66.0611 69.4072H70.9061V68.904H66.0611V69.4072ZM82.8673 71.5781V71.8297H83.1189V71.5781H82.8673ZM81.9588 71.5781H81.7072V71.8297H81.9588V71.5781ZM81.9446 69.6477L81.6932 69.6575L81.6935 69.6628L81.9446 69.6477ZM81.8642 69.236L81.6297 69.3273L81.632 69.3328L81.8642 69.236ZM80.5489 68.7251L80.5344 68.9762L80.5374 68.9764L80.5489 68.7251ZM75.4483 68.7014V68.4498H75.1967V68.7014H75.4483ZM75.4483 71.5781V71.8297H75.6999V71.5781H75.4483ZM74.5399 71.5781H74.2883V71.8297H74.5399V71.5781ZM74.5399 64.3106V64.059H74.2883V64.3106H74.5399ZM81.0835 64.3721L81.0564 64.6222L81.0587 64.6225L81.0835 64.3721ZM82.0251 64.5472L81.9483 64.7867L81.9492 64.787L82.0251 64.5472ZM82.5976 64.8405L82.4313 65.0293L82.4335 65.0312L82.5976 64.8405ZM82.8909 65.2522L82.6557 65.3415L82.6573 65.3456L82.8909 65.2522ZM82.9997 65.7821L82.7484 65.7942L82.7487 65.7983L82.9997 65.7821ZM82.9524 67.2299L82.7053 67.1825L82.7048 67.1852L82.9524 67.2299ZM82.3373 68.1999L82.4613 68.4188L82.4644 68.417L82.3373 68.1999ZM81.7081 68.3986L81.6707 68.1498V68.6474L81.7081 68.3986ZM82.8247 69.5057L82.5749 69.536L82.5754 69.5397L82.8247 69.5057ZM75.4483 67.9444H75.1967V68.1959H75.4483V67.9444ZM80.7003 67.9254L80.7118 68.1768L80.7145 68.1766L80.7003 67.9254ZM82.0156 67.4097L81.7833 67.3129L81.7811 67.3185L82.0156 67.4097ZM82.096 67.0028L81.8448 66.988L81.8447 66.9927L82.096 67.0028ZM82.096 65.9004L81.8446 65.9111L81.845 65.9164L82.096 65.9004ZM82.0156 65.5266L81.785 65.6275L81.7878 65.6334L82.0156 65.5266ZM81.3863 65.1481L81.3386 65.3951L81.3428 65.3959L81.3863 65.1481ZM80.7003 65.0818L80.6916 65.3333L80.6917 65.3333L80.7003 65.0818ZM75.4483 65.0676V64.816H75.1967V65.0676H75.4483ZM82.8673 71.3265H81.9588V71.8297H82.8673V71.3265ZM82.2104 71.5781V70.2155H81.7072V71.5781H82.2104ZM82.2104 70.2155C82.2104 69.9914 82.2056 69.7969 82.1958 69.6326L81.6935 69.6628C81.7026 69.8139 81.7072 69.9979 81.7072 70.2155H82.2104ZM82.196 69.6378C82.1889 69.4558 82.1582 69.2875 82.0964 69.1393L81.632 69.3328C81.6648 69.4117 81.6878 69.5178 81.6932 69.6575L82.196 69.6378ZM82.0987 69.1449C82.037 68.9862 81.9355 68.8548 81.7969 68.7565L81.5057 69.1668C81.5626 69.2072 81.6031 69.2588 81.6297 69.3272L82.0987 69.1449ZM81.7969 68.7565C81.6601 68.6594 81.4841 68.5961 81.2867 68.5546L81.1831 69.0469C81.3453 69.0811 81.4469 69.1251 81.5057 69.1668L81.7969 68.7565ZM81.2867 68.5546C81.0887 68.5129 80.8453 68.4867 80.5603 68.4737L80.5374 68.9764C80.8076 68.9887 81.0215 69.0129 81.1831 69.0469L81.2867 68.5546ZM80.5633 68.4739C80.2824 68.4577 79.9381 68.4498 79.5316 68.4498V68.953C79.9325 68.953 80.2664 68.9608 80.5344 68.9762L80.5633 68.4739ZM79.5316 68.4498H75.4483V68.953H79.5316V68.4498ZM75.1967 68.7014V71.5781H75.6999V68.7014H75.1967ZM75.4483 71.3265H74.5399V71.8297H75.4483V71.3265ZM74.7915 71.5781V64.3106H74.2883V71.5781H74.7915ZM74.5399 64.5622H79.683V64.059H74.5399V64.5622ZM79.683 64.5622C80.2328 64.5622 80.6899 64.5825 81.0564 64.6222L81.1106 64.122C80.72 64.0797 80.2435 64.059 79.683 64.059V64.5622ZM81.0587 64.6225C81.4303 64.6593 81.7251 64.7152 81.9483 64.7867L82.1019 64.3076C81.8329 64.2214 81.5 64.1606 81.1083 64.1217L81.0587 64.6225ZM81.9492 64.787C82.1796 64.86 82.3345 64.9441 82.4313 65.0293L82.7639 64.6517C82.5957 64.5035 82.3689 64.3921 82.101 64.3073L81.9492 64.787ZM82.4335 65.0312C82.5393 65.1223 82.6116 65.2254 82.6557 65.3415L83.1261 65.1628C83.0504 64.9635 82.9271 64.7921 82.7617 64.6498L82.4335 65.0312ZM82.6573 65.3456C82.7086 65.4738 82.7401 65.6224 82.7485 65.7942L83.251 65.7699C83.2404 65.5506 83.1994 65.346 83.1245 65.1587L82.6573 65.3456ZM82.7487 65.7983C82.7609 65.9875 82.7671 66.1981 82.7671 66.4303H83.2703C83.2703 66.1894 83.2638 65.9678 83.2508 65.7659L82.7487 65.7983ZM82.7671 66.4303C82.7671 66.7215 82.7458 66.9716 82.7054 67.1825L83.1995 67.2773C83.2474 67.0277 83.2703 66.7447 83.2703 66.4303H82.7671ZM82.7048 67.1852C82.6684 67.3873 82.607 67.5497 82.5264 67.6782L82.9526 67.9456C83.0739 67.7524 83.1545 67.5267 83.2 67.2746L82.7048 67.1852ZM82.5264 67.6782C82.4475 67.804 82.3432 67.905 82.2103 67.9827L82.4644 68.417C82.6658 68.2992 82.8297 68.1415 82.9526 67.9456L82.5264 67.6782ZM82.2134 67.9809C82.0802 68.0563 81.9021 68.1151 81.6707 68.1498L81.7454 68.6474C82.0188 68.6064 82.2601 68.5327 82.4613 68.4188L82.2134 67.9809ZM81.6707 68.6474C81.9025 68.6821 82.0679 68.7404 82.1803 68.8106L82.447 68.384C82.2567 68.265 82.0183 68.1907 81.7454 68.1498L81.6707 68.6474ZM82.1803 68.8106C82.2963 68.8831 82.3821 68.9745 82.4426 69.0862L82.885 68.8465C82.7815 68.6554 82.6339 68.5008 82.447 68.384L82.1803 68.8106ZM82.4426 69.0862C82.5067 69.2045 82.5527 69.3526 82.5749 69.536L83.0744 69.4755C83.0462 69.2425 82.985 69.0311 82.885 68.8465L82.4426 69.0862ZM82.5754 69.5397C82.6019 69.7342 82.6157 69.9591 82.6157 70.2155H83.1189C83.1189 69.9419 83.1042 69.6937 83.074 69.4718L82.5754 69.5397ZM82.6157 70.2155V71.5781H83.1189V70.2155H82.6157ZM75.4483 68.1959H79.683V67.6928H75.4483V68.1959ZM79.683 68.1959C80.089 68.1959 80.4322 68.1896 80.7118 68.1768L80.6887 67.6741C80.4194 67.6865 80.0845 67.6928 79.683 67.6928V68.1959ZM80.7145 68.1766C80.999 68.1604 81.2414 68.1326 81.4381 68.0912L81.3345 67.5988C81.1716 67.6331 80.9566 67.6589 80.686 67.6743L80.7145 68.1766ZM81.4381 68.0912C81.6355 68.0496 81.8115 67.9864 81.9483 67.8893L81.6571 67.479C81.5983 67.5207 81.4967 67.5647 81.3345 67.5988L81.4381 68.0912ZM81.9483 67.8893C82.0869 67.7909 82.1884 67.6595 82.2501 67.5009L81.7811 67.3185C81.7545 67.387 81.7141 67.4385 81.6571 67.479L81.9483 67.8893ZM82.2478 67.5065C82.3094 67.3588 82.3402 67.1923 82.3474 67.0129L81.8447 66.9927C81.8392 67.1287 81.8165 67.2335 81.7834 67.3129L82.2478 67.5065ZM82.3472 67.0176C82.357 66.8504 82.3618 66.6544 82.3618 66.4303H81.8587C81.8587 66.6478 81.854 66.8335 81.8449 66.988L82.3472 67.0176ZM82.3618 66.4303C82.3618 66.2218 82.357 66.0395 82.3471 65.8843L81.845 65.9164C81.854 66.0577 81.8587 66.2288 81.8587 66.4303H82.3618ZM82.3474 65.8897C82.3401 65.7186 82.3087 65.5591 82.2434 65.4198L81.7878 65.6334C81.8171 65.696 81.8393 65.7857 81.8447 65.9111L82.3474 65.8897ZM82.2461 65.4257C82.1804 65.2757 82.0739 65.1564 81.9342 65.0708L81.6712 65.4998C81.7271 65.534 81.7624 65.5756 81.7851 65.6274L82.2461 65.4257ZM81.9342 65.0708C81.7982 64.9874 81.6245 64.9344 81.4298 64.9003L81.3428 65.3959C81.5077 65.4248 81.6116 65.4632 81.6712 65.4998L81.9342 65.0708ZM81.434 64.901C81.2365 64.8629 80.9936 64.8401 80.7088 64.8304L80.6917 65.3333C80.9621 65.3425 81.1765 65.3638 81.3386 65.3951L81.434 64.901ZM80.7089 64.8304C80.4306 64.8208 80.0884 64.816 79.683 64.816V65.3192C80.0851 65.3192 80.421 65.3239 80.6916 65.3333L80.7089 64.8304ZM79.683 64.816H75.4483V65.3192H79.683V64.816ZM75.1967 65.0676V67.9444H75.6999V65.0676H75.1967ZM92.4106 66.5817H92.159V66.8333H92.4106V66.5817ZM86.5341 64.9541L86.5543 65.2049L86.5569 65.2046L86.5341 64.9541ZM85.1478 66.7757L85.3994 66.7806V66.7805L85.1478 66.7757ZM85.1478 69.1178L84.8963 69.1226L84.8964 69.1251L85.1478 69.1178ZM85.4364 70.4804L85.2301 70.6244L85.2324 70.6276L85.4364 70.4804ZM86.5341 70.9394L86.5111 71.1899L86.5142 71.1902L86.5341 70.9394ZM92.2498 70.3006L92.0216 70.1945L92.0205 70.1969L92.2498 70.3006ZM92.3775 69.818L92.6273 69.8477L92.6274 69.8472L92.3775 69.818ZM92.4106 68.7014H92.6622V68.4498H92.4106V68.7014ZM88.7674 68.7014H88.5158V68.953H88.7674V68.7014ZM88.7674 67.9444V67.6928H88.5158V67.9444H88.7674ZM93.3191 67.9444H93.5707V67.6928H93.3191V67.9444ZM93.2623 69.9789L93.5109 70.0176L93.511 70.0171L93.2623 69.9789ZM93.0588 70.6318L92.8345 70.5178L92.8338 70.5193L93.0588 70.6318ZM92.0652 71.4693L92.1502 71.7061L92.1529 71.7051L92.0652 71.4693ZM91.1852 71.6633L91.1551 71.4135L91.1528 71.4138L91.1852 71.6633ZM86.1509 71.6254L86.1959 71.3779L86.1943 71.3776L86.1509 71.6254ZM85.2141 71.3226L85.0905 71.5418L85.0926 71.5429L85.2141 71.3226ZM84.6416 70.8022L84.4293 70.9372L84.4308 70.9395L84.6416 70.8022ZM84.3482 70.0688L84.1022 70.1213L84.1028 70.1239L84.3482 70.0688ZM84.3482 65.8199L84.1027 65.7648L84.1022 65.7674L84.3482 65.8199ZM84.6416 65.0866L84.4308 64.9492L84.4293 64.9515L84.6416 65.0866ZM85.2141 64.5708L85.3355 64.7912L85.3377 64.7899L85.2141 64.5708ZM86.1509 64.2633L86.1943 64.5111L86.1959 64.5108L86.1509 64.2633ZM91.1805 64.2254L91.1481 64.4749L91.1504 64.4752L91.1805 64.2254ZM92.0605 64.4194L91.9755 64.6562L91.9782 64.6572L92.0605 64.4194ZM92.6709 64.7459L92.5109 64.9401L92.5128 64.9416L92.6709 64.7459ZM93.0588 65.2143L92.8362 65.3315L92.8378 65.3345L93.0588 65.2143ZM93.3191 66.5817V66.8333H93.5707V66.5817H93.3191ZM92.6622 66.5817C92.6622 66.1892 92.6203 65.8558 92.5235 65.5951L92.0518 65.7703C92.119 65.9513 92.159 66.2172 92.159 66.5817H92.6622ZM92.5235 65.5951C92.423 65.3246 92.2518 65.1104 92.0101 64.9655L91.7513 65.3969C91.8881 65.479 91.9882 65.5992 92.0518 65.7703L92.5235 65.5951ZM92.0101 64.9655C91.779 64.8268 91.4905 64.7471 91.1587 64.7133L91.1076 65.2138C91.394 65.243 91.6039 65.3085 91.7513 65.3969L92.0101 64.9655ZM91.1587 64.7133C90.8382 64.6805 90.4474 64.6646 89.9881 64.6646V65.1678C90.4373 65.1678 90.8098 65.1834 91.1076 65.2138L91.1587 64.7133ZM89.9881 64.6646H87.5561V65.1678H89.9881V64.6646ZM87.5561 64.6646C87.1478 64.6646 86.799 64.6774 86.5114 64.7035L86.5569 65.2046C86.8244 65.1803 87.157 65.1678 87.5561 65.1678V64.6646ZM86.514 64.7033C86.2239 64.7266 85.9697 64.7776 85.7587 64.8627L85.947 65.3293C86.0955 65.2694 86.2956 65.2257 86.5543 65.2048L86.514 64.7033ZM85.7587 64.8627C85.542 64.9501 85.3621 65.0812 85.2324 65.2612L85.6405 65.5554C85.7063 65.4641 85.804 65.387 85.947 65.3293L85.7587 64.8627ZM85.2324 65.2612C85.1072 65.4348 85.0255 65.6518 84.9767 65.899L85.4704 65.9964C85.5099 65.7957 85.5702 65.653 85.6405 65.5554L85.2324 65.2612ZM84.9767 65.899C84.9288 66.1422 84.9028 66.4339 84.8963 66.7709L85.3994 66.7805C85.4055 66.4614 85.43 66.2011 85.4704 65.9964L84.9767 65.899ZM84.8963 66.7708C84.8899 67.0978 84.8868 67.4891 84.8868 67.9444H85.39C85.39 67.4912 85.3931 67.1033 85.3994 66.7806L84.8963 66.7708ZM84.8868 67.9444C84.8868 68.3996 84.8899 68.7925 84.8963 69.1226L85.3994 69.1129C85.3931 68.787 85.39 68.3975 85.39 67.9444H84.8868ZM84.8964 69.1251C84.9061 69.4586 84.9337 69.7478 84.9814 69.9897L85.4751 69.8924C85.4345 69.6864 85.4085 69.4268 85.3993 69.1104L84.8964 69.1251ZM84.9814 69.9897C85.0299 70.2357 85.1095 70.4514 85.2301 70.6244L85.6428 70.3365C85.5742 70.2381 85.5149 70.0943 85.4751 69.8924L84.9814 69.9897ZM85.2324 70.6276C85.3621 70.8075 85.542 70.9386 85.7587 71.026L85.947 70.5594C85.804 70.5017 85.7063 70.4246 85.6405 70.3333L85.2324 70.6276ZM85.7587 71.026C85.9685 71.1107 86.2217 71.1633 86.5111 71.1899L86.5572 70.6888C86.2978 70.665 86.0967 70.6198 85.947 70.5594L85.7587 71.026ZM86.5142 71.1902C86.8006 71.213 87.1484 71.2241 87.5561 71.2241V70.7209C87.1564 70.7209 86.8228 70.71 86.5541 70.6886L86.5142 71.1902ZM87.5561 71.2241H89.9929V70.7209H87.5561V71.2241ZM89.9929 71.2241C90.3502 71.2241 90.6611 71.2145 90.9246 71.195L90.8874 70.6932C90.6399 70.7115 90.3421 70.7209 89.9929 70.7209V71.2241ZM90.9246 71.195C91.1911 71.1753 91.4263 71.1386 91.627 71.0822L91.491 70.5978C91.332 70.6424 91.1319 70.6751 90.8874 70.6932L90.9246 71.195ZM91.627 71.0822C91.8293 71.0254 92.0077 70.9433 92.1514 70.8283L91.8371 70.4354C91.76 70.497 91.6482 70.5537 91.491 70.5978L91.627 71.0822ZM92.1514 70.8283C92.2937 70.7144 92.4032 70.5719 92.479 70.4043L92.0205 70.1969C91.9765 70.2943 91.9156 70.3726 91.8371 70.4354L92.1514 70.8283ZM92.4779 70.4067C92.5546 70.2417 92.6029 70.0538 92.6273 69.8477L92.1277 69.7884C92.108 69.9544 92.0711 70.0883 92.0216 70.1945L92.4779 70.4067ZM92.6274 69.8472C92.6509 69.6457 92.6622 69.4148 92.6622 69.1556H92.159C92.159 69.4011 92.1483 69.6118 92.1276 69.7889L92.6274 69.8472ZM92.6622 69.1556V68.7014H92.159V69.1556H92.6622ZM92.4106 68.4498H88.7674V68.953H92.4106V68.4498ZM89.019 68.7014V67.9444H88.5158V68.7014H89.019ZM88.7674 68.1959H93.3191V67.6928H88.7674V68.1959ZM93.0675 67.9444V69.1556H93.5707V67.9444H93.0675ZM93.0675 69.1556C93.0675 69.4483 93.0492 69.7096 93.0136 69.9406L93.511 70.0171C93.5511 69.7561 93.5707 69.4686 93.5707 69.1556H93.0675ZM93.0137 69.9401C92.9794 70.1604 92.9188 70.3521 92.8346 70.5179L93.2831 70.7458C93.3945 70.5267 93.4695 70.2831 93.5109 70.0176L93.0137 69.9401ZM92.8338 70.5193C92.7541 70.6787 92.647 70.8163 92.5112 70.9334L92.8399 71.3144C93.0259 71.154 93.1743 70.9635 93.2839 70.7443L92.8338 70.5193ZM92.5112 70.9334C92.3777 71.0487 92.2019 71.1501 91.9776 71.2335L92.1529 71.7051C92.4206 71.6056 92.6518 71.4767 92.8399 71.3144L92.5112 70.9334ZM91.9802 71.2325C91.7565 71.3128 91.4825 71.3741 91.1551 71.4135L91.2152 71.9131C91.5692 71.8705 91.8819 71.8024 92.1502 71.7061L91.9802 71.2325ZM91.1528 71.4138C90.8257 71.4562 90.4395 71.4779 89.9929 71.4779V71.9811C90.4547 71.9811 90.8633 71.9587 91.2175 71.9128L91.1528 71.4138ZM89.9929 71.4779H87.5561V71.9811H89.9929V71.4779ZM87.5561 71.4779C87.0102 71.4779 86.5579 71.4437 86.1959 71.3779L86.1059 71.873C86.5072 71.9459 86.9918 71.9811 87.5561 71.9811V71.4779ZM86.1943 71.3776C85.8338 71.3145 85.5501 71.2206 85.3355 71.1023L85.0926 71.5429C85.3701 71.6959 85.711 71.8039 86.1075 71.8733L86.1943 71.3776ZM85.3377 71.1035C85.122 70.9818 84.9631 70.8348 84.8524 70.6648L84.4308 70.9395C84.5913 71.1859 84.8141 71.3858 85.0905 71.5418L85.3377 71.1035ZM84.8538 70.6671C84.7393 70.4871 84.6514 70.2706 84.5937 70.0136L84.1028 70.1239C84.1712 70.4284 84.2789 70.7008 84.4293 70.9372L84.8538 70.6671ZM84.5943 70.0163C84.5382 69.7536 84.5048 69.4523 84.4956 69.111L83.9926 69.1245C84.0024 69.4898 84.0384 69.8225 84.1022 70.1213L84.5943 70.0163ZM84.4956 69.111C84.4862 68.7604 84.4815 68.3716 84.4815 67.9444H83.9783C83.9783 68.3751 83.9831 68.7686 83.9926 69.1245L84.4956 69.111ZM84.4815 67.9444C84.4815 67.5172 84.4862 67.1283 84.4956 66.7777L83.9926 66.7642C83.9831 67.1202 83.9783 67.5136 83.9783 67.9444H84.4815ZM84.4956 66.7777C84.5048 66.4364 84.5382 66.1351 84.5943 65.8725L84.1022 65.7674C84.0384 66.0662 84.0024 66.3989 83.9926 66.7642L84.4956 66.7777ZM84.5937 65.8751C84.6514 65.6181 84.7393 65.4016 84.8538 65.2216L84.4293 64.9515C84.2789 65.1879 84.1712 65.4603 84.1028 65.7648L84.5937 65.8751ZM84.8524 65.2239C84.9627 65.0546 85.1208 64.9095 85.3355 64.7911L85.0926 64.3505C84.8152 64.5034 84.5917 64.7022 84.4308 64.9492L84.8524 65.2239ZM85.3377 64.7899C85.5516 64.6693 85.8345 64.5741 86.1943 64.5111L86.1075 64.0155C85.7103 64.085 85.3686 64.1948 85.0905 64.3517L85.3377 64.7899ZM86.1959 64.5108C86.5579 64.445 87.0102 64.4108 87.5561 64.4108V63.9076C86.9918 63.9076 86.5072 63.9428 86.1059 64.0158L86.1959 64.5108ZM87.5561 64.4108H89.9881V63.9076H87.5561V64.4108ZM89.9881 64.4108C90.4347 64.4108 90.8209 64.4325 91.1481 64.4749L91.2128 63.9759C90.8586 63.93 90.4499 63.9076 89.9881 63.9076V64.4108ZM91.1504 64.4752C91.4778 64.5146 91.7517 64.5759 91.9755 64.6562L92.1455 64.1826C91.8772 64.0863 91.5645 64.0183 91.2105 63.9756L91.1504 64.4752ZM91.9782 64.6572C92.2028 64.7349 92.3781 64.8307 92.5109 64.9401L92.8308 64.5517C92.6419 64.3961 92.4103 64.2743 92.1428 64.1817L91.9782 64.6572ZM92.5128 64.9416C92.6512 65.0534 92.7581 65.1831 92.8362 65.3315L93.2815 65.0971C93.1703 64.8859 93.0186 64.7033 92.8289 64.5502L92.5128 64.9416ZM92.8378 65.3345C92.9207 65.4868 92.9803 65.6631 93.0141 65.866L93.5105 65.7833C93.4686 65.532 93.3926 65.3014 93.2799 65.0941L92.8378 65.3345ZM93.0141 65.866C93.0493 66.077 93.0675 66.3153 93.0675 66.5817H93.5707C93.5707 66.293 93.551 66.0265 93.5105 65.7833L93.0141 65.866ZM93.3191 66.3301H92.4106V66.8333H93.3191V66.3301ZM101.997 64.2633L101.951 64.5108L101.954 64.5112L101.997 64.2633ZM102.938 64.5708L102.815 64.79L102.817 64.7911L102.938 64.5708ZM103.795 65.8199L103.548 65.8725L103.549 65.8751L103.795 65.8199ZM103.903 66.771L103.652 66.7777L103.652 66.7799L103.903 66.771ZM103.903 69.1178L103.652 69.1088L103.652 69.111L103.903 69.1178ZM103.795 70.0688L103.549 70.0136L103.549 70.0163L103.795 70.0688ZM102.938 71.3226L103.06 71.543L103.062 71.5418L102.938 71.3226ZM101.997 71.6254L101.954 71.3775L101.951 71.378L101.997 71.6254ZM96.456 71.6254L96.501 71.3779L96.4994 71.3776L96.456 71.6254ZM95.5192 71.3226L95.3956 71.5418L95.3978 71.5429L95.5192 71.3226ZM94.9467 70.8022L94.7344 70.9372L94.7359 70.9395L94.9467 70.8022ZM94.6534 70.0688L94.4073 70.1213L94.4079 70.1239L94.6534 70.0688ZM94.6534 65.8199L94.4079 65.7648L94.4073 65.7674L94.6534 65.8199ZM94.9467 65.0866L94.7359 64.9492L94.7345 64.9515L94.9467 65.0866ZM95.5192 64.5708L95.6407 64.7912L95.6428 64.7899L95.5192 64.5708ZM96.456 64.2633L96.4994 64.5111L96.501 64.5108L96.456 64.2633ZM101.609 70.9394L101.629 71.1902L101.631 71.1899L101.609 70.9394ZM103 69.1178L102.748 69.1105L102.748 69.1129L103 69.1178ZM103 66.7757L102.748 66.7805L102.748 66.783L103 66.7757ZM102.295 65.096L102.199 65.3287L102.201 65.3293L102.295 65.096ZM101.613 64.9541L101.59 65.2046L101.593 65.2049L101.613 64.9541ZM96.8393 64.9541L96.8595 65.2049L96.8621 65.2046L96.8393 64.9541ZM95.453 66.7757L95.7045 66.7806V66.7805L95.453 66.7757ZM95.453 69.1178L95.2014 69.1226L95.2015 69.1251L95.453 69.1178ZM95.7416 70.4804L95.5352 70.6244L95.5375 70.6276L95.7416 70.4804ZM96.8393 70.9394L96.8162 71.1899L96.8193 71.1902L96.8393 70.9394ZM100.596 64.4108C101.142 64.4108 101.593 64.445 101.951 64.5107L102.042 64.0158C101.644 63.9428 101.16 63.9076 100.596 63.9076V64.4108ZM101.954 64.5112C102.317 64.5742 102.601 64.6694 102.815 64.7899L103.062 64.3517C102.783 64.1946 102.44 64.0849 102.04 64.0154L101.954 64.5112ZM102.817 64.7911C103.031 64.9093 103.187 65.0537 103.294 65.2216L103.718 64.9515C103.56 64.703 103.337 64.5036 103.06 64.3505L102.817 64.7911ZM103.294 65.2216C103.408 65.4008 103.494 65.6163 103.549 65.8725L104.041 65.7674C103.975 65.4621 103.869 65.1887 103.718 64.9515L103.294 65.2216ZM103.549 65.8751C103.608 66.1368 103.643 66.4372 103.652 66.7777L104.155 66.7642C104.145 66.3982 104.107 66.0645 104.04 65.7648L103.549 65.8751ZM103.652 66.7799C103.664 67.1297 103.671 67.5178 103.671 67.9444H104.174C104.174 67.513 104.168 67.1188 104.155 66.762L103.652 66.7799ZM103.671 67.9444C103.671 68.371 103.664 68.759 103.652 69.1088L104.155 69.1267C104.168 68.7699 104.174 68.3757 104.174 67.9444H103.671ZM103.652 69.111C103.643 69.4515 103.608 69.7519 103.549 70.0136L104.04 70.1239C104.107 69.8242 104.145 69.4905 104.155 69.1245L103.652 69.111ZM103.549 70.0163C103.494 70.2724 103.408 70.488 103.294 70.6671L103.718 70.9372C103.869 70.7 103.975 70.4267 104.041 70.1213L103.549 70.0163ZM103.294 70.6671C103.186 70.8356 103.03 70.9821 102.815 71.1035L103.062 71.5418C103.339 71.3856 103.56 71.1851 103.718 70.9372L103.294 70.6671ZM102.817 71.1023C102.602 71.2204 102.317 71.3144 101.954 71.3776L102.04 71.8733C102.439 71.804 102.782 71.6961 103.06 71.5429L102.817 71.1023ZM101.951 71.378C101.593 71.4437 101.142 71.4779 100.596 71.4779V71.9811C101.16 71.9811 101.644 71.9459 102.042 71.8729L101.951 71.378ZM100.596 71.4779H97.8613V71.9811H100.596V71.4779ZM97.8613 71.4779C97.3154 71.4779 96.863 71.4437 96.501 71.3779L96.411 71.873C96.8124 71.9459 97.2969 71.9811 97.8613 71.9811V71.4779ZM96.4994 71.3776C96.1389 71.3145 95.8553 71.2206 95.6407 71.1023L95.3978 71.5429C95.6752 71.6959 96.0161 71.8039 96.4127 71.8733L96.4994 71.3776ZM95.6428 71.1035C95.4271 70.9818 95.2682 70.8348 95.1575 70.6648L94.7359 70.9395C94.8965 71.1859 95.1192 71.3858 95.3956 71.5418L95.6428 71.1035ZM95.159 70.6671C95.0444 70.4871 94.9566 70.2706 94.8988 70.0136L94.4079 70.1239C94.4763 70.4284 94.584 70.7008 94.7345 70.9372L95.159 70.6671ZM94.8994 70.0163C94.8433 69.7536 94.8099 69.4523 94.8008 69.111L94.2978 69.1245C94.3075 69.4898 94.3435 69.8225 94.4073 70.1213L94.8994 70.0163ZM94.8008 69.111C94.7914 68.7604 94.7867 68.3716 94.7867 67.9444H94.2835C94.2835 68.3751 94.2882 68.7686 94.2978 69.1245L94.8008 69.111ZM94.7867 67.9444C94.7867 67.5172 94.7914 67.1283 94.8008 66.7777L94.2978 66.7642C94.2882 67.1202 94.2835 67.5136 94.2835 67.9444H94.7867ZM94.8008 66.7777C94.8099 66.4364 94.8433 66.1351 94.8994 65.8725L94.4073 65.7674C94.3435 66.0662 94.3075 66.3989 94.2978 66.7642L94.8008 66.7777ZM94.8988 65.8751C94.9566 65.6181 95.0444 65.4016 95.159 65.2216L94.7345 64.9515C94.584 65.1879 94.4763 65.4603 94.4079 65.7648L94.8988 65.8751ZM95.1575 65.2239C95.2678 65.0546 95.426 64.9095 95.6407 64.7911L95.3978 64.3505C95.1204 64.5034 94.8969 64.7022 94.7359 64.9492L95.1575 65.2239ZM95.6428 64.7899C95.8568 64.6693 96.1396 64.5741 96.4994 64.5111L96.4127 64.0155C96.0154 64.085 95.6737 64.1948 95.3956 64.3517L95.6428 64.7899ZM96.501 64.5108C96.863 64.445 97.3154 64.4108 97.8613 64.4108V63.9076C97.2969 63.9076 96.8124 63.9428 96.411 64.0158L96.501 64.5108ZM97.8613 64.4108H100.596V63.9076H97.8613V64.4108ZM100.596 71.2241C101.001 71.2241 101.345 71.213 101.629 71.1902L101.588 70.6886C101.323 70.71 100.993 70.7209 100.596 70.7209V71.2241ZM101.631 71.1899C101.924 71.1634 102.179 71.1108 102.389 71.026L102.201 70.5594C102.051 70.6197 101.849 70.6649 101.586 70.6888L101.631 71.1899ZM102.389 71.026C102.605 70.9386 102.785 70.8075 102.915 70.6276L102.507 70.3333C102.441 70.4246 102.343 70.5017 102.201 70.5594L102.389 71.026ZM102.915 70.6276C103.04 70.4539 103.122 70.237 103.171 69.9897L102.677 69.8924C102.638 70.093 102.577 70.2357 102.507 70.3333L102.915 70.6276ZM103.171 69.9897C103.219 69.7467 103.245 69.4566 103.251 69.1226L102.748 69.1129C102.742 69.4287 102.718 69.6875 102.677 69.8924L103.171 69.9897ZM103.251 69.125C103.261 68.7938 103.265 68.4002 103.265 67.9444H102.762C102.762 68.397 102.758 68.7856 102.748 69.1105L103.251 69.125ZM103.265 67.9444C103.265 67.4886 103.261 67.0964 103.251 66.7684L102.748 66.783C102.758 67.1047 102.762 67.4917 102.762 67.9444H103.265ZM103.251 66.7709C103.245 66.4339 103.219 66.1422 103.171 65.899L102.677 65.9964C102.717 66.2011 102.742 66.4614 102.748 66.7805L103.251 66.7709ZM103.171 65.899C103.122 65.6518 103.04 65.4348 102.915 65.2612L102.507 65.5554C102.577 65.653 102.638 65.7957 102.677 65.9964L103.171 65.899ZM102.915 65.2612C102.785 65.0812 102.605 64.9501 102.389 64.8627L102.201 65.3293C102.343 65.387 102.441 65.4641 102.507 65.5554L102.915 65.2612ZM102.39 64.8633C102.181 64.7774 101.926 64.7266 101.633 64.7033L101.593 65.2049C101.856 65.2257 102.055 65.2695 102.199 65.3287L102.39 64.8633ZM101.636 64.7035C101.352 64.6774 101.004 64.6646 100.596 64.6646V65.1678C100.995 65.1678 101.326 65.1803 101.59 65.2046L101.636 64.7035ZM100.596 64.6646H97.8613V65.1678H100.596V64.6646ZM97.8613 64.6646C97.453 64.6646 97.1042 64.6774 96.8165 64.7035L96.8621 65.2046C97.1295 65.1803 97.4621 65.1678 97.8613 65.1678V64.6646ZM96.8191 64.7033C96.529 64.7266 96.2749 64.7776 96.0638 64.8627L96.2521 65.3293C96.4007 65.2694 96.6007 65.2257 96.8595 65.2048L96.8191 64.7033ZM96.0638 64.8627C95.8471 64.9501 95.6673 65.0812 95.5375 65.2612L95.9457 65.5554C96.0115 65.4641 96.1092 65.387 96.2521 65.3293L96.0638 64.8627ZM95.5375 65.2612C95.4123 65.4348 95.3306 65.6518 95.2818 65.899L95.7755 65.9964C95.8151 65.7957 95.8753 65.653 95.9457 65.5554L95.5375 65.2612ZM95.2818 65.899C95.2339 66.1422 95.2079 66.4339 95.2014 66.7709L95.7045 66.7805C95.7106 66.4614 95.7351 66.2011 95.7755 65.9964L95.2818 65.899ZM95.2014 66.7708C95.1951 67.0978 95.1919 67.4891 95.1919 67.9444H95.6951C95.6951 67.4912 95.6982 67.1033 95.7045 66.7806L95.2014 66.7708ZM95.1919 67.9444C95.1919 68.3996 95.1951 68.7925 95.2014 69.1226L95.7045 69.1129C95.6982 68.787 95.6951 68.3975 95.6951 67.9444H95.1919ZM95.2015 69.1251C95.2112 69.4586 95.2389 69.7478 95.2866 69.9897L95.7802 69.8924C95.7396 69.6864 95.7137 69.4268 95.7044 69.1104L95.2015 69.1251ZM95.2866 69.9897C95.3351 70.2357 95.4146 70.4514 95.5353 70.6244L95.9479 70.3365C95.8793 70.2381 95.8201 70.0943 95.7802 69.8924L95.2866 69.9897ZM95.5375 70.6276C95.6673 70.8075 95.8471 70.9386 96.0638 71.026L96.2521 70.5594C96.1092 70.5017 96.0115 70.4246 95.9457 70.3333L95.5375 70.6276ZM96.0638 71.026C96.2737 71.1107 96.5268 71.1633 96.8163 71.1899L96.8623 70.6888C96.6029 70.665 96.4018 70.6198 96.2521 70.5594L96.0638 71.026ZM96.8193 71.1902C97.1058 71.213 97.4535 71.2241 97.8613 71.2241V70.7209C97.4615 70.7209 97.128 70.71 96.8592 70.6886L96.8193 71.1902ZM97.8613 71.2241H100.596V70.7209H97.8613V71.2241Z" fill="#264F2D" mask="url(#path-4-outside-1_0_634)" />
		</g>
		<defs>
			<clipPath id="clip0_0_634">
				<rect width="109" height="83.0825" fill="white" />
			</clipPath>
		</defs>
	</symbol>
	<symbol id="icon-email" viewBox="0 0 30 30" fill="none">
		<path d="M9 9H21C21.825 9 22.5 9.675 22.5 10.5V19.5C22.5 20.325 21.825 21 21 21H9C8.175 21 7.5 20.325 7.5 19.5V10.5C7.5 9.675 8.175 9 9 9Z" stroke="#2F2F2F" stroke-width="1.5" stroke-linecap="round" stroke-linejoin="round" />
		<path d="M22.5 10.5L15 15.75L7.5 10.5" stroke="#2F2F2F" stroke-width="1.5" stroke-linecap="round" stroke-linejoin="round" />
	</symbol>
	<symbol id="icon-phone" viewBox="0 0 30 30" fill="none">
		<path d="M17.2036 10.5C17.9361 10.6429 18.6094 11.0012 19.1371 11.529C19.6649 12.0567 20.0232 12.7299 20.1661 13.4625M17.2036 7.5C18.7255 7.66908 20.1448 8.35063 21.2283 9.43276C22.3118 10.5149 22.9951 11.9333 23.1661 13.455M22.4161 19.44V21.69C22.4169 21.8989 22.3741 22.1056 22.2905 22.297C22.2068 22.4884 22.0841 22.6602 21.9301 22.8014C21.7762 22.9426 21.5945 23.0501 21.3966 23.117C21.1988 23.1839 20.9891 23.2088 20.7811 23.19C18.4732 22.9392 16.2563 22.1506 14.3086 20.8875C12.4965 19.736 10.9601 18.1996 9.80859 16.3875C8.54107 14.4309 7.75227 12.2032 7.50609 9.885C7.48735 9.6776 7.51199 9.46857 7.57846 9.27122C7.64493 9.07387 7.75177 8.89252 7.89216 8.73872C8.03256 8.58491 8.20344 8.46203 8.39393 8.37789C8.58442 8.29375 8.79034 8.2502 8.99859 8.25H11.2486C11.6126 8.24642 11.9654 8.37531 12.2414 8.61265C12.5174 8.84999 12.6976 9.17959 12.7486 9.54C12.8436 10.26 13.0197 10.967 13.2736 11.6475C13.3745 11.9159 13.3963 12.2077 13.3365 12.4882C13.2767 12.7686 13.1377 13.0261 12.9361 13.23L11.9836 14.1825C13.0513 16.0602 14.6059 17.6148 16.4836 18.6825L17.4361 17.73C17.64 17.5284 17.8975 17.3894 18.1779 17.3296C18.4584 17.2698 18.7501 17.2916 19.0186 17.3925C19.699 17.6464 20.406 17.8225 21.1261 17.9175C21.4904 17.9689 21.8231 18.1524 22.061 18.4331C22.2988 18.7138 22.4252 19.0722 22.4161 19.44Z" stroke="#2F2F2F" stroke-width="1.5" stroke-linecap="round" stroke-linejoin="round" />
	</symbol>
	<symbol id="icon-telegram" viewBox="0 0 48 48" fill="none">
		<path d="M36.651 11.2258L7.75273 22.372C5.78038 23.1633 5.79208 24.2634 7.39322 24.7539L14.6005 27.0035L17.3582 35.4583C17.6935 36.3837 17.5282 36.7507 18.4999 36.7507C19.2499 36.7507 19.5825 36.4088 20.0002 36.0008C20.2658 35.7409 21.8428 34.2077 23.6037 32.4957L31.1006 38.0347C32.4801 38.7958 33.4762 38.4016 33.8198 36.7535L38.7409 13.5631C39.2448 11.5431 37.9708 10.6268 36.651 11.2258ZM15.7316 26.4866L31.9769 16.2374C32.7879 15.7455 33.5315 16.01 32.921 16.5519L19.0108 29.1025L18.4691 34.8792L15.7316 26.4866Z" fill="#2F2F2F" />
	</symbol>
	<symbol id="icon-whatsapp" viewBox="0 0 48 48" fill="none">
		<path fill-rule="evenodd" clip-rule="evenodd" d="M25.6424 5.91668C30.1 6.13576 34.2536 7.97395 37.4261 11.1486C40.8101 14.5347 42.6728 19.0358 42.671 23.8225C42.6669 33.7002 34.6256 41.7372 24.7473 41.7372C21.0325 41.7372 18.0805 40.5958 16.1744 39.5567L6.67273 42.0479L9.21561 32.7644C7.64708 30.0476 6.82173 26.9658 6.82302 23.8082C6.82699 13.9307 14.8676 5.89453 24.747 5.89453L25.6424 5.91668ZM16.6146 36.3135L17.1587 36.6361C19.446 37.9928 22.0679 38.7106 24.7411 38.7117H24.7472C32.9584 38.7117 39.6413 32.0318 39.6446 23.8214C39.6462 19.8428 38.0981 16.1017 35.2854 13.2872C32.4726 10.4726 28.7323 8.92162 24.7531 8.92033C16.5356 8.92033 9.85256 15.5995 9.84928 23.8093C9.84816 26.6229 10.6357 29.363 12.127 31.7336L12.4812 32.2971L10.9762 37.7917L16.6146 36.3135ZM33.7771 28.0826C33.6651 27.8957 33.3666 27.7838 32.9188 27.5597C32.4709 27.3356 30.2691 26.2527 29.8585 26.1032C29.448 25.954 29.1494 25.8794 28.8509 26.3274C28.5524 26.7754 27.6941 27.7838 27.4328 28.0826C27.1716 28.3813 26.9103 28.4187 26.4625 28.1946C26.0147 27.9706 24.5716 27.4978 22.861 25.9728C21.5296 24.7858 20.6308 23.32 20.3695 22.8719C20.1083 22.4238 20.3416 22.1814 20.5658 21.9583C20.7673 21.7577 21.0138 21.4355 21.2377 21.1741C21.4616 20.9128 21.5362 20.7259 21.6856 20.4273C21.8348 20.1285 21.7601 19.8672 21.6482 19.6431C21.5362 19.4189 20.6406 17.2156 20.2674 16.3193C19.9038 15.4465 19.5346 15.5647 19.2597 15.5509C18.9988 15.538 18.6999 15.5351 18.4014 15.5351C18.1028 15.5351 17.6176 15.6471 17.2071 16.0953C16.7966 16.5434 15.6396 17.6264 15.6396 19.8296C15.6396 22.033 17.2444 24.1614 17.4683 24.4602C17.6923 24.7591 20.6264 29.2802 25.119 31.2194C26.1875 31.6806 27.0217 31.956 27.6721 32.1623C28.745 32.503 29.7213 32.455 30.493 32.3397C31.3534 32.2112 33.1427 31.2568 33.5159 30.2113C33.8891 29.1654 33.8891 28.2692 33.7771 28.0826Z" fill="#2F2F2F" />
	</symbol>
</svg>
